<?xml version="1.0" standalone="no"?>
<!DOCTYPE svg PUBLIC "-//W3C//DTD SVG 1.1//EN" "http://www.w3.org/Graphics/SVG/1.1/DTD/svg11.dtd" >
<svg>
<metadata>
Created by FontForge 20110222 at Tue Mar 31 19:51:12 2015
 By deploy user
(c) 1990, 2002, 2005 Adobe Systems Incorporated. All rights reserved.
</metadata>
<defs>
<font id="RotisSansSerifStd-Italic" horiz-adv-x="500" >
  <font-face 
    font-family="Rotis Sans Serif Std"
    font-weight="400"
    font-style="italic"
    font-stretch="normal"
    units-per-em="1000"
    panose-1="2 11 6 6 5 2 4 2 2 4"
    ascent="690"
    descent="-310"
    x-height="476"
    cap-height="690"
    bbox="-82 -272 1190 928"
    underline-thickness="50"
    underline-position="-50"
    slope="-11"
    unicode-range="U+0020-FB02"
  />
<missing-glyph horiz-adv-x="625" 
d="M125 0v700h500v-700h-500zM375 395l170 255h-340zM405 350l170 -255v510zM205 50h340l-170 255zM175 605v-510l170 255z" />
    <glyph glyph-name="f_i" unicode="fi" horiz-adv-x="537" 
d="M107 0l81 420h-79l11 56h79l9 48q17 89 58 133t136 44q42 0 77 -9l-11 -60q-43 12 -75 12q-31 0 -52 -9.5t-33 -29t-17.5 -36t-10.5 -42.5l-10 -51h135l-11 -56h-135l-81 -420h-71zM381 0l93 476h71l-93 -476h-71zM488 600l18 90h90l-18 -90h-90z" />
    <glyph glyph-name="f_l" unicode="fl" horiz-adv-x="537" 
d="M107 0l81 420h-79l11 56h79l9 48q17 89 58 133t136 44q42 0 77 -9l-11 -60q-43 12 -75 12q-31 0 -52 -9.5t-33 -29t-17.5 -36t-10.5 -42.5l-10 -51h135l-11 -56h-135l-81 -420h-71zM381 0l134 690h71l-134 -690h-71z" />
    <glyph glyph-name=".notdef" horiz-adv-x="625" 
d="M125 0v700h500v-700h-500zM375 395l170 255h-340zM405 350l170 -255v510zM205 50h340l-170 255zM175 605v-510l170 255z" />
    <glyph glyph-name=".null" horiz-adv-x="0" 
 />
    <glyph glyph-name="nonmarkingreturn" horiz-adv-x="333" 
 />
    <glyph glyph-name="space" unicode=" " horiz-adv-x="204" 
 />
    <glyph glyph-name="exclam" unicode="!" horiz-adv-x="278" 
d="M126 0l20 99h99l-20 -99h-99zM179 187l89 503h84l-106 -503h-67z" />
    <glyph glyph-name="quotedbl" unicode="&#x22;" horiz-adv-x="352" 
d="M166 476l26 214h91l-60 -214h-57zM313 476l25 214h91l-59 -214h-57z" />
    <glyph glyph-name="numbersign" unicode="#" horiz-adv-x="574" 
d="M97 0l97 214h-95l24 54h96l43 96h-95l24 54h96l99 216h63l-99 -216h85l99 216h63l-99 -216h100l-24 -54h-101l-43 -96h100l-24 -54h-101l-97 -214h-63l97 214h-85l-97 -214h-63zM325 364l-43 -96h85l43 96h-85z" />
    <glyph glyph-name="dollar" unicode="$" horiz-adv-x="537" 
d="M224 -95l16 84q-156 10 -156 131q0 5 2 15h89q-2 -12 -2 -17q0 -70 76 -84l55 285q-2 1 -15 5t-19 6.5t-19.5 8t-21.5 11t-20 14t-19 18.5t-14 22t-10.5 27.5t-3.5 33.5q0 93 61.5 145.5t148.5 57.5l15 74h48l-15 -74q58 -4 105 -34.5t47 -90.5q0 -7 -2 -19h-89
q2 14 2 21q0 66 -72 78l-51 -265q34 -11 53 -19.5t47.5 -27t42.5 -48t14 -69.5q0 -96 -69 -150.5t-160 -54.5l-16 -84h-48zM315 374l48 249q-53 -10 -85 -48.5t-32 -97.5q0 -73 69 -103zM349 302l-52 -268q57 8 94.5 50t37.5 107q0 31 -17 57t-32.5 36.5t-30.5 17.5z" />
    <glyph glyph-name="percent" unicode="%" horiz-adv-x="815" 
d="M221 197q-120 0 -120 144q0 50 10 100t30.5 97.5t60 77t91.5 29.5q62 0 91 -38.5t29 -102.5q0 -48 -10 -97.5t-30.5 -98.5t-60 -80t-91.5 -31zM159 346q0 -43 16.5 -72.5t53.5 -29.5q34 0 60 28.5t39.5 71t20 82.5t6.5 73q0 46 -13.5 72.5t-51.5 26.5q-34 0 -60.5 -26
t-41 -66.5t-22 -81.5t-7.5 -78zM646 -11q-121 0 -121 143q0 51 10 101t30.5 97.5t60 77t92.5 29.5q62 0 90.5 -38.5t28.5 -103.5q0 -48 -10 -97.5t-30.5 -98t-59.5 -79.5t-91 -31zM583 138q0 -102 70 -102q34 0 60 28.5t39.5 71t20 82.5t6.5 72q0 46 -13 73t-51 27
q-34 0 -61 -26.5t-41.5 -66.5t-22 -81.5t-7.5 -77.5zM276 0l331 634h57l-331 -634h-57z" />
    <glyph glyph-name="ampersand" unicode="&#x26;" horiz-adv-x="648" 
d="M379 63l-12 -60q-53 -14 -93 -14q-96 0 -141.5 43t-45.5 117q0 85 41.5 136t112.5 69q-82 41 -82 122q0 87 61 139t165 52q54 0 108 -17l-12 -61q-53 21 -95 21q-67 0 -107 -34t-40 -98q0 -56 34.5 -77t99.5 -21h154l34 173l79 43l-42 -216h115l-10 -56h-116l-34 -176
q-7 -32 -7 -54q0 -21 14 -34.5t40 -13.5q8 0 16 1t18 2.5t16 2.5l-11 -55q-29 -8 -55 -8q-111 0 -111 78q0 35 8 75l35 182h-193q-80 0 -118 -48t-38 -115q0 -115 122 -115q41 0 90 17z" />
    <glyph glyph-name="quotesingle" unicode="'" horiz-adv-x="204" 
d="M165 476l25 214h91l-59 -214h-57z" />
    <glyph glyph-name="parenleft" unicode="(" horiz-adv-x="278" 
d="M228 -119l-8 -44q-127 34 -127 199q0 95 42 300.5t99 307.5q24 43 70.5 71t91.5 30l-9 -44q-22 -4 -49.5 -28t-43.5 -58q-41 -88 -82.5 -303t-41.5 -299q0 -103 58 -132z" />
    <glyph glyph-name="parenright" unicode=")" horiz-adv-x="278" 
d="M-5 -163l8 44q22 4 50 28t43 57q41 88 83 304t42 299q0 102 -59 132l9 44q127 -34 127 -199q0 -96 -42 -301t-100 -308q-24 -43 -70 -70.5t-91 -29.5z" />
    <glyph glyph-name="asterisk" unicode="*" horiz-adv-x="315" 
d="M189 424l-39 34l46 52l27 28l-40 5l-67 13l10 49l67 -13l38 -10l-15 36l-22 66l48 17l23 -67l10 -38l23 32l46 53l39 -34l-46 -53l-27 -28l38 -4l67 -14l-10 -48l-66 13l-38 10l15 -36l24 -65l-50 -18l-23 66l-9 36l-23 -29z" />
    <glyph glyph-name="plus" unicode="+" horiz-adv-x="574" 
d="M251 0l41 213h-194l12 61h194l38 196h68l-38 -196h199l-11 -61h-200l-41 -213h-68z" />
    <glyph glyph-name="comma" unicode="," horiz-adv-x="204" 
d="M31 -123l57 222h88l-79 -222h-66z" />
    <glyph glyph-name="hyphen" unicode="-" horiz-adv-x="407" 
d="M93 213l14 70h304l-13 -70h-305z" />
    <glyph glyph-name="period" unicode="." horiz-adv-x="204" 
d="M52 0l20 99h99l-20 -99h-99z" />
    <glyph glyph-name="slash" unicode="/" horiz-adv-x="296" 
d="M-9 -137l364 898h71l-364 -898h-71z" />
    <glyph glyph-name="zero" unicode="0" 
d="M255 -11q-171 0 -171 208q0 78 15.5 153t47 143t88 110t130.5 42q93 0 134 -57t41 -151q0 -60 -9 -119.5t-30.5 -119.5t-53 -105.5t-81.5 -74.5t-111 -29zM163 199q0 -151 106 -151q50 0 89 40t60.5 101.5t32 125t10.5 121.5q0 31 -3.5 54.5t-13.5 47t-31.5 36
t-53.5 12.5q-50 0 -89.5 -38t-61.5 -98t-33.5 -125t-11.5 -126z" />
    <glyph glyph-name="one" unicode="1" 
d="M247 0l110 566l-138 -81l15 77l142 83h70l-126 -645h-73z" />
    <glyph glyph-name="two" unicode="2" 
d="M55 0l13 65q36 26 70 52.5t94 79t103 99t76 101.5t33 98q0 36 -21.5 63.5t-72.5 27.5q-54 0 -80.5 -28.5t-34.5 -66.5h-83q8 63 60.5 108.5t144.5 45.5q85 0 125.5 -44t40.5 -108q0 -43 -19 -87t-46 -79.5t-69.5 -76t-76.5 -67.5t-80.5 -63.5t-68.5 -54.5h284l-12 -65
h-380z" />
    <glyph glyph-name="three" unicode="3" 
d="M234 504h-83q5 54 56.5 97.5t135.5 43.5q86 0 127.5 -39t41.5 -100q0 -77 -44.5 -124t-90.5 -49v-2q16 -5 27.5 -11.5t26.5 -19.5t23 -37.5t8 -57.5q0 -94 -55 -155t-165 -61q-78 0 -126 33.5t-48 89.5q0 6 2 20h82q0 -3 -0.5 -8.5t-0.5 -7.5q8 -68 98 -68q71 0 102.5 42
t31.5 109q0 33 -9 54t-27 31t-35.5 13t-45.5 4l11 59q156 0 156 138q0 36 -22 62t-72 26q-85 0 -105 -82z" />
    <glyph glyph-name="four" unicode="4" 
d="M302 0l34 177h-261l12 62l331 395h80l-76 -392h110l-12 -65h-111l-34 -177h-73zM406 547l-245 -305h188l59 303z" />
    <glyph glyph-name="five" unicode="5" 
d="M287 569l-53 -217q53 32 116 32q68 0 109 -39.5t41 -112.5q0 -105 -60.5 -174t-178.5 -69q-80 0 -126 33.5t-46 92.5q0 2 1 8t1 9h82q0 -2 -0.5 -7t-0.5 -8q0 -25 26 -47t74 -22q76 0 112.5 50t36.5 126q0 50 -27 75.5t-73 25.5q-54 0 -102 -48h-76l87 357h317l-16 -65
h-244z" />
    <glyph glyph-name="six" unicode="6" 
d="M550 503h-82q1 6 1 16q0 28 -23 47.5t-60 19.5q-140 0 -182 -267q-1 -6 -1 -9l2 -2q59 75 158 75q146 0 146 -163q0 -92 -58.5 -161.5t-160.5 -69.5q-54 0 -90.5 17.5t-55 49.5t-26 67t-7.5 80q0 75 14.5 147.5t45 141t88.5 111t136 42.5q70 0 113.5 -34.5t43.5 -87.5
q0 -13 -2 -20zM190 163q0 -50 25 -82.5t82 -32.5q60 0 96.5 47.5t36.5 112.5q0 49 -24.5 82.5t-76.5 33.5q-68 0 -103.5 -49t-35.5 -112z" />
    <glyph glyph-name="seven" unicode="7" 
d="M114 0l352 569h-290l13 65h373l-13 -65l-352 -569h-83z" />
    <glyph glyph-name="eight" unicode="8" 
d="M261 -11q-91 0 -132.5 41t-41.5 110q0 80 40 128t110 59v2q-82 22 -82 118q0 85 56.5 141.5t156.5 56.5q79 0 121.5 -40t42.5 -102q0 -44 -14 -78t-36.5 -53t-44 -29.5t-43.5 -14.5v-2q89 -28 89 -128q0 -89 -57.5 -149t-164.5 -60zM234 448q0 -42 24.5 -66t68.5 -24
q68 0 97 41t29 94q0 39 -22 66t-73 27q-61 0 -92.5 -42t-31.5 -96zM166 149q0 -49 27 -75t78 -26q71 0 102 43.5t31 106.5q0 42 -23 71.5t-80 29.5q-65 0 -100 -45.5t-35 -104.5z" />
    <glyph glyph-name="nine" unicode="9" 
d="M82 131h82q0 -3 -0.5 -8t-0.5 -8q0 -28 23.5 -47.5t60.5 -19.5q142 0 182 277l-2 2q-57 -75 -157 -75q-45 0 -76 15.5t-45 42t-19.5 51.5t-5.5 53q0 92 58.5 161.5t160.5 69.5q179 0 179 -213q0 -75 -14.5 -148t-45 -141.5t-88.5 -111t-136 -42.5q-70 0 -114 34.5
t-44 87.5q0 8 2 20zM203 426q0 -49 24.5 -82t76.5 -33q68 0 103.5 49t35.5 111q0 50 -25 82.5t-82 32.5q-60 0 -96.5 -47.5t-36.5 -112.5z" />
    <glyph glyph-name="colon" unicode=":" horiz-adv-x="204" 
d="M72 0l20 99h99l-20 -99h-99zM146 377l19 99h99l-19 -99h-99z" />
    <glyph glyph-name="semicolon" unicode=";" horiz-adv-x="204" 
d="M51 -123l57 222h88l-79 -222h-66zM155 377l20 99h99l-20 -99h-99z" />
    <glyph glyph-name="less" unicode="&#x3c;" horiz-adv-x="574" 
d="M518 0l-422 204l12 62l501 204l-12 -63l-427 -172l360 -172z" />
    <glyph glyph-name="equal" unicode="=" horiz-adv-x="574" 
d="M83 139l12 61h461l-11 -61h-462zM112 287l12 61h461l-12 -61h-461z" />
    <glyph glyph-name="greater" unicode="&#x3e;" horiz-adv-x="574" 
d="M56 0l13 63l427 172l-360 172l12 63l422 -204l-12 -63z" />
    <glyph glyph-name="question" unicode="?" horiz-adv-x="407" 
d="M170 187l9 45q9 49 24 73t64 68l70 64q2 2 11 10t12.5 11.5t12 11.5t12.5 13t11 13t10.5 14.5t7.5 14.5t5.5 16t1.5 16q0 40 -32 59.5t-73 19.5q-66 0 -132 -32l15 75q81 22 132 22q79 0 125 -37.5t46 -92.5q0 -17 -3.5 -32.5t-12 -30.5t-15 -26t-21 -26t-20.5 -21.5
t-23 -21.5t-20 -18l-62 -56q-43 -40 -56.5 -61t-21.5 -62l-6 -29h-71zM119 0l19 99h99l-19 -99h-99z" />
    <glyph glyph-name="at" unicode="@" horiz-adv-x="1000" 
d="M865 14l26 -23q-33 -36 -123 -80t-200 -44q-179 0 -295.5 92.5t-116.5 238.5q0 178 134 312t314 134q154 0 258 -90.5t104 -232.5q0 -132 -86.5 -226.5t-194.5 -94.5q-42 0 -57.5 22t-15.5 49l-7 -7q-7 -8 -11.5 -12t-14 -12t-19 -13t-21.5 -10.5t-26.5 -8t-30.5 -2.5
q-57 0 -95 37.5t-38 105.5q0 72 37 148t98 127.5t124 51.5q37 0 64.5 -16.5t35 -28t17.5 -29.5l22 54h86l-83 -207q-61 -149 -61 -170q0 -27 30 -27q28 0 62 18.5t65 51.5t52 86t21 113q0 124 -90.5 198t-220.5 74q-95 0 -184.5 -57t-144.5 -149t-55 -188q0 -125 95 -205.5
t253 -80.5q171 0 290 98zM429 114q0 -67 70 -67q26 0 49 15t34.5 30.5t22.5 33.5l3 6q37 61 60.5 136.5t23.5 104.5q0 25 -16.5 44.5t-45.5 19.5q-45 0 -93.5 -61t-78 -137t-29.5 -125z" />
    <glyph glyph-name="A" unicode="A" horiz-adv-x="556" 
d="M9 0l355 690h94l89 -690h-75l-26 212h-252l-106 -212h-79zM397 620l-171 -343h213l-40 343h-2z" />
    <glyph glyph-name="B" unicode="B" horiz-adv-x="537" 
d="M85 0l135 690h152q40 0 70 -5.5t58.5 -20t44 -45t15.5 -75.5q0 -76 -44 -125t-90 -53v-2q104 -27 104 -134q0 -108 -64 -169t-201 -61h-180zM284 625l-46 -232h91q68 0 109.5 38t41.5 113q0 49 -30 65t-98 16h-68zM226 328l-52 -263h97q179 0 179 155q0 48 -33 78t-91 30
h-100z" />
    <glyph glyph-name="C" unicode="C" horiz-adv-x="537" 
d="M520 101l-16 -78q-78 -34 -167 -34q-123 0 -174 69t-51 189q0 81 18 158t55 145t102.5 109.5t151.5 41.5q90 0 139.5 -46.5t49.5 -111.5q0 -8 -2 -23.5t-2 -17.5h-89q4 20 4 34q0 41 -29.5 70.5t-85.5 29.5q-58 0 -103.5 -37.5t-71.5 -96.5t-39.5 -123t-13.5 -126
q0 -199 154 -199q76 0 170 47z" />
    <glyph glyph-name="D" unicode="D" horiz-adv-x="574" 
d="M85 0l135 690h154q112 0 170 -54t58 -173q0 -100 -20.5 -182.5t-62 -146t-110.5 -99t-160 -35.5h-164zM283 625l-109 -560h88q87 0 146 56t84.5 143t25.5 199q0 50 -13 83.5t-39 50t-55 22.5t-71 6h-57z" />
    <glyph glyph-name="E" unicode="E" horiz-adv-x="463" 
d="M85 0l135 690h334l-13 -65h-258l-45 -232h245l-12 -65h-246l-51 -263h266l-12 -65h-343z" />
    <glyph glyph-name="F" unicode="F" horiz-adv-x="426" 
d="M85 0l135 690h333l-12 -65h-258l-46 -232h246l-12 -65h-246l-64 -328h-76z" />
    <glyph glyph-name="G" unicode="G" horiz-adv-x="593" 
d="M602 389l-66 -337q-84 -63 -208 -63q-219 0 -219 247q0 86 19 166t56 148.5t100.5 109.5t145.5 41q92 0 147 -47t55 -117q0 -13 -5 -35h-89q5 15 5 31q0 42 -32 72.5t-89 30.5q-73 0 -127.5 -64t-78 -150.5t-23.5 -175.5q0 -30 2.5 -54t11.5 -51t24.5 -45t44 -30
t66.5 -12q76 0 124 35l47 235h-160l13 65h236z" />
    <glyph glyph-name="H" unicode="H" horiz-adv-x="611" 
d="M87 0l134 690h76l-58 -300h286l58 300h76l-134 -690h-76l63 325h-286l-63 -325h-76z" />
    <glyph glyph-name="I" unicode="I" horiz-adv-x="259" 
d="M92 0l134 690h76l-134 -690h-76z" />
    <glyph glyph-name="J" unicode="J" horiz-adv-x="352" 
d="M410 690l-98 -504q-6 -29 -9 -44t-11 -40t-17.5 -38t-25.5 -30t-36.5 -25t-50.5 -14t-67 -6q-45 0 -94 13l13 70q50 -18 85 -18q40 0 66 10t40.5 35t19.5 40.5t12 51.5q1 6 2 9l95 490h76z" />
    <glyph glyph-name="K" unicode="K" horiz-adv-x="519" 
d="M85 0l135 690h76l-62 -311l2 -2l302 313h94l-326 -334l213 -356h-89l-203 338l-66 -338h-76z" />
    <glyph glyph-name="L" unicode="L" horiz-adv-x="407" 
d="M87 0l134 690h76l-122 -625h248l-13 -65h-323z" />
    <glyph glyph-name="M" unicode="M" horiz-adv-x="796" 
d="M84 0l134 690h115l81 -595h2l311 595h120l-134 -690h-76l117 603l-2 2l-315 -605h-77l-81 605h-2l-117 -605h-76z" />
    <glyph glyph-name="N" unicode="N" horiz-adv-x="630" 
d="M85 0l135 690h97l169 -594h2l116 594h76l-135 -690h-97l-173 581h-2l-112 -581h-76z" />
    <glyph glyph-name="O" unicode="O" horiz-adv-x="593" 
d="M306 -11q-109 0 -153 63t-44 172q0 65 10 129t34 127.5t59.5 112t91.5 78.5t125 30q191 0 191 -228q0 -83 -16.5 -163.5t-51.5 -154.5t-98.5 -120t-147.5 -46zM193 222q0 -27 5 -53t16.5 -53.5t37 -44.5t61.5 -17q54 0 96 34.5t65 83.5t38 110t19.5 105.5t4.5 78.5
q0 170 -123 170q-52 0 -93.5 -34t-64.5 -82.5t-37.5 -109t-19.5 -106.5t-5 -82z" />
    <glyph glyph-name="P" unicode="P" horiz-adv-x="481" 
d="M85 0l135 690h124q40 0 67.5 -2.5t58.5 -11.5t49.5 -25.5t31 -46.5t12.5 -72q0 -224 -250 -224h-92l-60 -308h-76zM283 625l-50 -252h68q42 0 70.5 5t56.5 19.5t41.5 46t13.5 80.5q0 29 -10 49t-23 30t-37 15.5t-39 6t-42 0.5h-49z" />
    <glyph glyph-name="Q" unicode="Q" horiz-adv-x="611" 
d="M602 0h-283q-59 0 -100 17t-63 49t-31.5 70.5t-9.5 87.5q0 65 10 129t34 127.5t59.5 112t91.5 78.5t125 30q192 0 192 -228q0 -127 -38 -239t-122 -181l2 -2l146 16zM199 222q0 -26 5 -50t18 -50t40.5 -41.5t66.5 -15.5q52 0 92 31.5t62.5 77t36.5 104t18.5 104t4.5 84.5
q0 170 -124 170q-52 0 -93.5 -34t-64.5 -82.5t-37.5 -109t-19.5 -106.5t-5 -82z" />
    <glyph glyph-name="R" unicode="R" horiz-adv-x="537" 
d="M85 0l134 690h140q50 0 85 -5t68 -20t50 -46t17 -79q0 -91 -46 -140.5t-126 -59.5v-2q50 -15 68 -47.5t20 -104.5l5 -186h-76l-4 159q-3 91 -31 118.5t-117 27.5h-51l-60 -305h-76zM283 625l-50 -255h57q96 0 152.5 35t56.5 125q0 54 -37.5 74.5t-112.5 20.5h-66z" />
    <glyph glyph-name="S" unicode="S" horiz-adv-x="481" 
d="M538 682l-15 -80q-77 34 -149 34q-68 0 -110.5 -30.5t-42.5 -83.5q0 -35 27.5 -63t66.5 -50.5t77.5 -47t66 -63.5t27.5 -90q0 -101 -73.5 -160t-206.5 -59q-72 0 -156 22l15 80q90 -37 160 -37q74 0 127.5 36t53.5 99q0 36 -27.5 67t-66 55t-77.5 49.5t-66.5 62
t-27.5 81.5q0 87 66.5 142t186.5 55q73 0 144 -19z" />
    <glyph glyph-name="T" unicode="T" horiz-adv-x="407" 
d="M165 0l121 625h-165l12 65h408l-13 -65h-165l-122 -625h-76z" />
    <glyph glyph-name="U" unicode="U" horiz-adv-x="593" 
d="M648 690l-87 -441q-7 -37 -13 -60.5t-16 -54t-21.5 -49t-30 -39t-42 -31.5t-56 -18.5t-72.5 -7.5q-84 0 -140 40.5t-56 117.5q0 34 12 96l87 447h76l-87 -448q-11 -62 -11 -84q0 -52 36 -78t87 -26q46 0 76.5 13.5t49 43.5t27.5 59t18 79l87 441h76z" />
    <glyph glyph-name="V" unicode="V" horiz-adv-x="519" 
d="M213 0l-96 690h75l78 -610h2l313 610h85l-364 -690h-93z" />
    <glyph glyph-name="W" unicode="W" horiz-adv-x="833" 
d="M160 0l11 690h76l-15 -595l2 -2l281 597h73l50 -597h2l216 597h75l-256 -690h-91l-51 590h-2l-281 -590h-90z" />
    <glyph glyph-name="X" unicode="X" horiz-adv-x="519" 
d="M-3 0l292 362l-131 328h80l102 -259l205 259h87l-264 -328l147 -362h-80l-118 293l-232 -293h-88z" />
    <glyph glyph-name="Y" unicode="Y" 
d="M211 0l62 318l-144 372h83l111 -293l228 293h89l-291 -372l-62 -318h-76z" />
    <glyph glyph-name="Z" unicode="Z" horiz-adv-x="481" 
d="M24 0l12 65l440 560h-314l13 65h401l-12 -65l-440 -560h345l-13 -65h-432z" />
    <glyph glyph-name="bracketleft" unicode="[" horiz-adv-x="296" 
d="M71 -136l175 896h181l-12 -59h-107l-151 -778h107l-12 -59h-181z" />
    <glyph glyph-name="backslash" unicode="\" horiz-adv-x="296" 
d="M291 -137l-234 898h71l234 -898h-71z" />
    <glyph glyph-name="bracketright" unicode="]" horiz-adv-x="296" 
d="M-9 -136l12 59h107l151 778h-107l12 59h181l-174 -896h-182z" />
    <glyph glyph-name="asciicircum" unicode="^" horiz-adv-x="370" 
d="M164 532l126 158h60l64 -158h-61l-43 105l-85 -105h-61z" />
    <glyph glyph-name="underscore" unicode="_" 
d="M0 -125v50h500v-50h-500z" />
    <glyph glyph-name="grave" unicode="`" horiz-adv-x="290" 
d="M205 559l-42 131h88l16 -131h-62z" />
    <glyph glyph-name="a" unicode="a" horiz-adv-x="481" 
d="M333 0l15 77l-2 2q-14 -26 -26 -42t-41 -32t-67 -16q-62 0 -95 45t-33 120q0 74 21.5 147.5t71 129.5t117.5 56q45 0 74 -25.5t42 -59.5h2l13 74h71l-92 -476h-71zM162 164q0 -118 75 -118q45 0 80 42.5t51.5 100t16.5 114.5t-23.5 92t-63.5 35q-36 0 -64.5 -31
t-43 -76.5t-21.5 -87t-7 -71.5z" />
    <glyph glyph-name="b" unicode="b" horiz-adv-x="481" 
d="M272 690l-58 -292l2 -2q56 91 145 91q67 0 97.5 -49.5t30.5 -128.5q0 -58 -13 -112.5t-39.5 -102.5t-73.5 -76.5t-108 -28.5q-68 0 -110.5 39.5t-42.5 116.5q0 34 9 83l90 462h71zM171 161q0 -53 24.5 -84t65.5 -31q39 0 70 26.5t47.5 66.5t24.5 81t8 77q0 64 -16 98.5
t-61 34.5q-48 0 -87 -49t-57.5 -109.5t-18.5 -110.5z" />
    <glyph glyph-name="c" unicode="c" horiz-adv-x="426" 
d="M402 56l-11 -54q-58 -13 -95 -13q-96 0 -151.5 48t-55.5 152q0 73 23.5 138.5t79.5 112.5t135 47q70 0 107 -34t37 -86q0 -19 -3 -36h-82q3 27 3 29q0 29 -18 49.5t-52 20.5q-66 0 -109 -63t-43 -158q0 -163 158 -163q35 0 77 10z" />
    <glyph glyph-name="d" unicode="d" horiz-adv-x="481" 
d="M333 0l15 77l-2 2q-14 -26 -26 -42t-41 -32t-67 -16q-62 0 -95 45t-33 120q0 74 21.5 147.5t71 129.5t117.5 56q45 0 74 -25.5t42 -59.5h2l55 288h71l-134 -690h-71zM162 164q0 -118 75 -118q45 0 80 42.5t51.5 100t16.5 114.5t-23.5 92t-63.5 35q-36 0 -64.5 -31
t-43 -76.5t-21.5 -87t-7 -71.5z" />
    <glyph glyph-name="e" unicode="e" horiz-adv-x="444" 
d="M401 59l-11 -56q-58 -14 -102 -14q-198 0 -198 199q0 55 13 107t39.5 95.5t71 70t101.5 26.5q66 0 107 -38t41 -97q0 -34 -10 -71h-276q-9 -43 -9 -74q0 -82 38 -121.5t118 -39.5q36 0 77 13zM190 337h200q2 12 2 18q0 35 -22 55t-59 20q-83 0 -121 -93z" />
    <glyph glyph-name="f" unicode="f" horiz-adv-x="315" 
d="M107 0l81 420h-79l11 56h79l10 48q17 89 58 133t135 44q42 0 77 -9l-11 -60q-43 12 -75 12q-58 0 -80.5 -31.5t-32.5 -85.5l-10 -51h135l-11 -56h-135l-81 -420h-71z" />
    <glyph glyph-name="g" unicode="g" horiz-adv-x="481" 
d="M497 476l-93 -476q-9 -46 -24 -79t-41.5 -61t-71 -42t-106.5 -14q-45 0 -125 16l13 68q54 -27 112 -27q83 0 119.5 32t52.5 107l16 82l-2 2q-53 -84 -143 -84q-55 0 -86 46t-31 120q0 54 13 109t38 103t65.5 78.5t90.5 30.5q47 0 76 -27t40 -59h2l14 75h71zM165 174
q0 -49 16 -83t52 -34q68 0 110 79.5t42 166.5q0 56 -23.5 91.5t-62.5 35.5q-36 0 -64 -30.5t-42 -75.5t-21 -83.5t-7 -66.5z" />
    <glyph glyph-name="h" unicode="h" 
d="M80 0l134 690h71l-61 -309l2 -2q24 35 39.5 53t50 36.5t78.5 18.5q43 0 69.5 -30.5t26.5 -76.5q0 -30 -9 -73l-59 -307h-71l55 284q8 48 8 80q0 26 -15 41.5t-40 15.5q-35 0 -66.5 -25.5t-52.5 -66.5t-35.5 -82.5t-22.5 -84.5l-31 -162h-71z" />
    <glyph glyph-name="i" unicode="i" horiz-adv-x="241" 
d="M85 0l93 476h71l-93 -476h-71zM192 600l17 90h90l-17 -90h-90z" />
    <glyph glyph-name="j" unicode="j" horiz-adv-x="241" 
d="M255 476l-93 -476q-19 -100 -62 -148t-142 -48q-22 0 -40 3l12 59q22 -5 46 -5q57 0 79 32.5t36 106.5l93 476h71zM198 600l18 90h90l-18 -90h-90z" />
    <glyph glyph-name="k" unicode="k" horiz-adv-x="426" 
d="M79 0l134 690h71l-81 -413l2 -2l200 201h86l-215 -214l141 -262h-82l-135 253h-2l-48 -253h-71z" />
    <glyph glyph-name="l" unicode="l" horiz-adv-x="241" 
d="M85 0l134 690h71l-134 -690h-71z" />
    <glyph glyph-name="m" unicode="m" horiz-adv-x="741" 
d="M80 0l92 476h71l-19 -95l2 -2q17 26 27.5 39.5t30 32.5t44.5 27.5t56 8.5q42 0 66.5 -28.5t24.5 -78.5h2q17 25 28 39t31 32.5t46 27t59 8.5q42 0 67 -29t25 -73q0 -7 -11 -78l-59 -307h-71l55 284q10 50 10 78q0 27 -14 43t-37 16q-34 0 -63 -25.5t-49.5 -66.5
t-34 -82.5t-21.5 -84.5l-31 -162h-71l55 284q11 63 11 78q0 27 -14.5 43t-37.5 16q-34 0 -63 -25.5t-49.5 -66.5t-34 -82.5t-21.5 -84.5l-31 -162h-71z" />
    <glyph glyph-name="n" unicode="n" 
d="M80 0l92 476h71l-19 -95l2 -2q24 35 39.5 53t50 36.5t78.5 18.5q43 0 69.5 -30.5t26.5 -76.5q0 -19 -9 -73l-60 -307h-71l55 284q9 43 9 80q0 26 -15 41.5t-40 15.5q-35 0 -66.5 -25.5t-52.5 -66.5t-35.5 -82.5t-22.5 -84.5l-31 -162h-71z" />
    <glyph glyph-name="o" unicode="o" horiz-adv-x="481" 
d="M250 -11q-75 0 -119.5 43.5t-44.5 131.5q0 57 13 111t40 103.5t76.5 79t115.5 29.5q76 0 117.5 -44.5t41.5 -127.5q0 -61 -13 -116t-40 -103.5t-75.5 -77.5t-111.5 -29zM164 172q0 -53 22 -89.5t72 -36.5q44 0 75.5 24.5t48 65t23.5 81t7 83.5q0 130 -90 130
q-42 0 -74.5 -25t-49.5 -65t-25.5 -82.5t-8.5 -85.5z" />
    <glyph glyph-name="p" unicode="p" horiz-adv-x="481" 
d="M42 -214l134 690h71l-15 -77l2 -2q14 26 26 42t41 32t67 16q63 0 95.5 -45t32.5 -120q0 -54 -13 -110.5t-37.5 -107.5t-66 -83t-93.5 -32q-45 0 -74 25.5t-42 59.5h-2l-55 -288h-71zM195 173q0 -57 23.5 -92t62.5 -35q37 0 65.5 31t43 77t21.5 87t7 71q0 118 -75 118
q-67 0 -107.5 -82.5t-40.5 -174.5z" />
    <glyph glyph-name="q" unicode="q" horiz-adv-x="481" 
d="M291 -214l57 291l-2 2q-46 -90 -134 -90q-62 0 -95 45.5t-33 120.5q0 74 21.5 147t71.5 129t117 56q48 0 78 -27t38 -58h2l13 74h71l-134 -690h-71zM162 163q0 -117 74 -117q46 0 81.5 43t51.5 100.5t16 113.5q0 52 -22.5 89.5t-63.5 37.5q-37 0 -65.5 -31.5t-43 -77
t-21.5 -87t-7 -71.5z" />
    <glyph glyph-name="r" unicode="r" horiz-adv-x="315" 
d="M80 0l92 476h71l-19 -92l2 -2q52 105 177 105l-14 -73q-44 0 -79.5 -18t-55.5 -41.5t-35.5 -60.5t-21.5 -61t-12 -57l-34 -176h-71z" />
    <glyph glyph-name="s" unicode="s" horiz-adv-x="370" 
d="M405 465l-13 -61q-62 26 -113 26q-41 0 -70 -18t-29 -51q0 -21 20 -39.5t48 -33t56 -31.5t48 -44.5t20 -62.5q0 -82 -59 -121.5t-144 -39.5q-58 0 -130 18l13 66q57 -27 120 -27q52 0 89.5 20.5t37.5 64.5q0 28 -30 51.5t-66 40t-66 49t-30 74.5q0 72 52.5 106.5
t122.5 34.5q61 0 123 -22z" />
    <glyph glyph-name="t" unicode="t" horiz-adv-x="333" 
d="M316 52l-12 -58q-25 -5 -47 -5q-123 0 -123 101q0 26 7 61l52 269h-77l11 56h77l21 111l79 43l-29 -154h127l-11 -56h-127l-43 -224q-15 -78 -15 -94q0 -56 64 -56q24 0 46 6z" />
    <glyph glyph-name="u" unicode="u" 
d="M344 0l19 95l-2 2q-18 -27 -28.5 -40t-31.5 -32t-47 -27.5t-59 -8.5q-43 0 -69.5 30.5t-26.5 76.5q0 30 9 73l60 307h71l-56 -284q-8 -38 -8 -81q0 -25 15.5 -40.5t39.5 -15.5q46 0 85 45.5t59 100t32 113.5l33 162h71l-95 -476h-71z" />
    <glyph glyph-name="v" unicode="v" horiz-adv-x="426" 
d="M188 0l-87 476h70l66 -376h2l197 376h75l-254 -476h-69z" />
    <glyph glyph-name="w" unicode="w" horiz-adv-x="685" 
d="M157 0l-22 476h66l16 -370h2l183 370h59l47 -370h2l160 370h66l-204 -476h-71l-45 365h-2l-183 -365h-74z" />
    <glyph glyph-name="x" unicode="x" horiz-adv-x="444" 
d="M9 0l225 252l-113 224h77l82 -166l143 166h88l-199 -228l124 -248h-76l-96 190l-167 -190h-88z" />
    <glyph glyph-name="y" unicode="y" horiz-adv-x="426" 
d="M79 -196l105 196l-86 476h73l68 -381h2l200 381h72l-361 -672h-73z" />
    <glyph glyph-name="z" unicode="z" horiz-adv-x="407" 
d="M31 0l11 56l319 364h-231l11 56h314l-11 -56l-317 -364h256l-11 -56h-341z" />
    <glyph glyph-name="braceleft" unicode="{" 
d="M473 -247v-25q-80 3 -145.5 52t-65.5 118q0 36 12 96q16 80 16 94q0 44 -32 78t-78 49v24q47 15 78.5 47.5t31.5 79.5q0 14 -16 94q-12 60 -12 96q0 69 65.5 118t145.5 52v-25q-52 -12 -79.5 -50.5t-27.5 -85.5q0 -29 7 -85t7 -79q0 -39 -15.5 -70t-45.5 -52t-47 -30
t-47 -22q23 -10 36 -16.5t39 -23t41 -33.5t27 -44t12 -57q0 -23 -7 -79t-7 -85q0 -47 27.5 -85.5t79.5 -50.5z" />
    <glyph glyph-name="bar" unicode="|" horiz-adv-x="259" 
d="M152 -136v896h68v-896h-68z" />
    <glyph glyph-name="braceright" unicode="}" 
d="M169 -272v25q52 12 79.5 50.5t27.5 85.5q0 29 -7 85t-7 79q0 30 12 57t27 44t41 33.5t39 23t36 16.5q-30 13 -47 22t-47 30t-45.5 52t-15.5 70q0 23 7 79t7 85q0 47 -27.5 85.5t-79.5 50.5v25q80 -3 145.5 -52t65.5 -118q0 -36 -12 -96q-16 -80 -16 -94q0 -47 31.5 -79.5
t78.5 -47.5v-24q-46 -15 -78 -49t-32 -78q0 -14 16 -94q12 -60 12 -96q0 -69 -65.5 -118t-145.5 -52z" />
    <glyph glyph-name="asciitilde" unicode="~" horiz-adv-x="574" 
d="M86 171l5 45q16 133 123 133q40 0 89 -42l89 -77q38 -33 58 -33q49 0 60 88l4 31h60l-4 -36q-7 -59 -36.5 -100.5t-88.5 -41.5q-46 0 -90 40l-91 80q-36 32 -54 32q-50 0 -59 -82l-5 -37h-60z" />
    <glyph glyph-name="uni00A0" unicode="&#xa0;" horiz-adv-x="204" 
 />
    <glyph glyph-name="exclamdown" unicode="&#xa1;" horiz-adv-x="278" 
d="M33 -136l106 503h67l-90 -503h-83zM140 455l19 99h99l-19 -99h-99z" />
    <glyph glyph-name="cent" unicode="&#xa2;" horiz-adv-x="444" 
d="M191 -95l18 94q-121 33 -121 169q0 126 54.5 217.5t161.5 101.5l15 77h44l-15 -77q59 -6 90.5 -39t31.5 -81q0 -3 -3 -36h-82q3 27 3 29q0 73 -48 84l-78 -402q24 -7 62 -7q37 0 80 15l-9 -45q-59 -16 -100 -16q-15 0 -43 2l-17 -86h-44zM221 61l75 383
q-57 -13 -94 -87.5t-37 -168.5q0 -90 56 -127z" />
    <glyph glyph-name="sterling" unicode="&#xa3;" horiz-adv-x="444" 
d="M100 0l58 300h-67l11 55h67l21 108q10 50 20.5 81t31.5 62t57.5 45.5t90.5 14.5q68 0 110 -33.5t42 -92.5q0 -12 -2 -18h-79q3 9 3 18q0 29 -22.5 48t-61.5 19q-31 0 -51.5 -9t-33 -31t-18 -41.5t-12.5 -55.5l-22 -115h120l-11 -55h-120l-45 -235h256l-13 -65h-330z" />
    <glyph glyph-name="currency" unicode="&#xa4;" 
d="M113 83l-30 31l67 66q-47 53 -47 136q0 77 48 139l-69 69l32 31l68 -68q64 46 137 46t137 -46l68 68l32 -31l-69 -69q47 -51 47 -139q0 -81 -46 -136l67 -66l-30 -31l-66 66q-63 -47 -140 -47q-80 0 -140 47zM319 492q-72 0 -123.5 -51.5t-51.5 -124.5q0 -71 51.5 -122
t123.5 -51q71 0 122.5 51t51.5 122q0 73 -51 124.5t-123 51.5z" />
    <glyph glyph-name="yen" unicode="&#xa5;" 
d="M273 317l-20 53h-144l11 54h112l-103 266h83l111 -293l228 293h89l-207 -266h121l-11 -54h-152l-42 -53l-13 -67h192l-11 -54h-192l-38 -196h-76l38 196h-166l11 54h166z" />
    <glyph glyph-name="brokenbar" unicode="&#xa6;" horiz-adv-x="259" 
d="M152 -136v359h68v-359h-68zM152 402v358h68v-358h-68z" />
    <glyph glyph-name="section" unicode="&#xa7;" horiz-adv-x="463" 
d="M511 677l-15 -73q-64 43 -129 43q-42 0 -75 -19.5t-33 -57.5q0 -29 36.5 -51.5t79.5 -36.5t79.5 -44t36.5 -72q0 -27 -9.5 -50.5t-29.5 -43t-30 -27t-30 -21.5q36 -33 36 -79q0 -71 -66 -113.5t-154 -42.5q-68 0 -128 21l16 80q66 -47 128 -47q51 0 85.5 24.5t34.5 60.5
q0 27 -24.5 47t-59 34t-69 29t-59 40.5t-24.5 60.5q0 19 6 37.5t13 31t21 27t20.5 20.5t21.5 18l16 12q-27 42 -27 77q0 67 56 103t128 36q70 0 148 -24zM183 372q0 -30 31 -54t83 -46t61 -27q58 40 58 88q0 23 -18 42t-39 29.5t-60.5 28t-60.5 28.5q-55 -47 -55 -89z" />
    <glyph glyph-name="dieresis" unicode="&#xa8;" horiz-adv-x="290" 
d="M115 570l17 88h88l-17 -88h-88zM292 570l17 88h88l-17 -88h-88z" />
    <glyph glyph-name="copyright" unicode="&#xa9;" 
d="M350 231q-98 0 -166.5 68.5t-68.5 166.5q0 97 69 166t166 69t166 -69t69 -166t-69 -166t-166 -69zM150 466q0 -82 59 -141t141 -59t141 59t59 141t-59 141t-141 59t-141 -59t-59 -141zM431 407l25 -32q-43 -39 -95 -39q-55 0 -95.5 38.5t-40.5 95.5q0 56 41 95t95 39
q52 0 95 -39l-25 -33q-37 31 -70 31q-35 0 -63.5 -25.5t-28.5 -67.5q0 -43 28 -68t61 -25q38 0 73 30z" />
    <glyph glyph-name="ordfeminine" unicode="&#xaa;" horiz-adv-x="278" 
d="M246 289l9 42l-2 2q-27 -49 -74 -49q-34 0 -52 24t-18 68q0 38 10.5 77t38 72t66.5 33q46 0 64 -48h2l7 42h38l-51 -263h-38zM151 380q0 -63 42 -63q35 0 58 44.5t23 95.5q0 27 -13 47.5t-34 20.5q-20 0 -36 -17t-24 -41.5t-12 -47t-4 -39.5z" />
    <glyph glyph-name="guillemotleft" unicode="&#xab;" horiz-adv-x="352" 
d="M114 59l-38 185l110 189h73l-99 -189l27 -185h-73zM251 59l-38 185l110 189h73l-99 -189l27 -185h-73z" />
    <glyph glyph-name="logicalnot" unicode="&#xac;" horiz-adv-x="574" 
d="M513 67v146h-400v61h461v-207h-61z" />
    <glyph glyph-name="uni00AD" unicode="&#xad;" horiz-adv-x="407" 
d="M93 213l14 70h304l-13 -70h-305z" />
    <glyph glyph-name="registered" unicode="&#xae;" 
d="M350 231q-98 0 -166.5 68.5t-68.5 166.5q0 97 69 166t166 69t166 -69t69 -166t-69 -166t-166 -69zM150 466q0 -82 59 -141t141 -59t141 59t59 141t-59 141t-141 59t-141 -59t-59 -141zM261 348v248h83q29 0 48.5 -4.5t36 -23t16.5 -52.5q0 -9 -1.5 -16.5t-4.5 -13.5
t-5.5 -10t-8.5 -7.5t-8 -5t-8 -5t-7 -3.5l46 -107h-51l-38 100h-53v-100h-45zM306 553v-65h53q39 0 39 32q0 33 -42 33h-50z" />
    <glyph glyph-name="macron" unicode="&#xaf;" horiz-adv-x="290" 
d="M116 559l11 60h253l-12 -60h-252z" />
    <glyph glyph-name="degree" unicode="&#xb0;" horiz-adv-x="333" 
d="M271 424q-46 0 -78.5 32.5t-32.5 78.5q0 45 32.5 77.5t78.5 32.5q45 0 77.5 -32.5t32.5 -77.5q0 -46 -32.5 -78.5t-77.5 -32.5zM207 535q0 -26 19 -45t45 -19t44.5 19t18.5 45q0 25 -19 44t-44 19q-26 0 -45 -19t-19 -44z" />
    <glyph glyph-name="plusminus" unicode="&#xb1;" horiz-adv-x="574" 
d="M36 -104l12 61h462l-12 -61h-462zM251 0l41 213h-194l12 61h194l38 196h68l-38 -196h199l-11 -61h-200l-41 -213h-68z" />
    <glyph glyph-name="twosuperior" unicode="&#xb2;" horiz-adv-x="352" 
d="M81 202l9 49q29 20 63.5 48t81.5 71t77.5 89t30.5 81q0 24 -14 42t-46 18q-60 0 -76 -65h-61q6 45 39.5 77.5t101.5 32.5q58 0 86 -30.5t28 -75.5q0 -43 -31 -92.5t-76 -90t-77 -65t-51 -36.5v-2h186l-10 -51h-261z" />
    <glyph glyph-name="threesuperior" unicode="&#xb3;" horiz-adv-x="352" 
d="M206 544h-61q6 42 39.5 71.5t93.5 29.5q59 0 88 -27t29 -71q0 -50 -25 -79t-59 -39q50 -22 50 -86q0 -65 -38 -106.5t-113 -41.5q-54 0 -87 23t-33 63q0 3 0.5 8t0.5 7h62q0 -1 -0.5 -4.5t-0.5 -5.5q0 -18 15 -32t47 -14q89 0 89 99q0 39 -19 53t-62 14l9 46
q106 0 106 90q0 24 -14.5 41t-47.5 17q-52 0 -69 -56z" />
    <glyph glyph-name="acute" unicode="&#xb4;" horiz-adv-x="290" 
d="M219 559l69 131h88l-94 -131h-63z" />
    <glyph glyph-name="mu" unicode="&#xb5;" horiz-adv-x="519" 
d="M41 -214l134 690h71l-49 -252q-12 -60 -12 -88q0 -32 19 -56.5t59 -24.5q22 0 41.5 9.5t33 22.5t26 35t20 39t15 44t10.5 40.5t7.5 37.5t4.5 26l32 167h71l-65 -333q-10 -54 -10 -62q0 -42 34 -42q1 0 5 0.5t6 0.5l-9 -47q-16 -4 -25 -4q-72 0 -72 77q0 9 2 19l-2 2
q-14 -25 -26.5 -42t-44 -36.5t-69.5 -19.5q-57 0 -89 41l-47 -244h-71z" />
    <glyph glyph-name="paragraph" unicode="&#xb6;" 
d="M343 -215v437q-31 6 -58 14.5t-58 26.5t-53 41.5t-37 60.5t-16 83q0 64 26.5 111t63.5 71.5t89.5 39t89 17.5t78.5 3h69v-39h-70v-866h-37v865q-15 -1 -50 -5v-860h-37z" />
    <glyph glyph-name="periodcentered" unicode="&#xb7;" horiz-adv-x="204" 
d="M105 268l19 98h98l-19 -98h-98z" />
    <glyph glyph-name="cedilla" unicode="&#xb8;" horiz-adv-x="290" 
d="M195 16l-31 -74q43 0 63.5 -15t20.5 -51q0 -44 -33 -73.5t-84 -29.5q-31 0 -60 13l10 51q24 -24 53 -24q20 0 38.5 16t18.5 39q0 40 -58 40q-5 0 -13 -0.5t-12 -0.5l45 109h42z" />
    <glyph glyph-name="onesuperior" unicode="&#xb9;" horiz-adv-x="352" 
d="M210 202l74 382l-92 -55l11 60l101 56h48l-87 -443h-55z" />
    <glyph glyph-name="ordmasculine" unicode="&#xba;" horiz-adv-x="278" 
d="M199 284q-42 0 -65.5 25t-23.5 72q0 32 7 61.5t22.5 56.5t43 43t64.5 16q40 0 62.5 -25.5t22.5 -69.5q0 -72 -32.5 -125.5t-100.5 -53.5zM152 384q0 -67 53 -67q46 0 65.5 42t19.5 96q0 70 -49 70q-46 0 -67.5 -43.5t-21.5 -97.5z" />
    <glyph glyph-name="guillemotright" unicode="&#xbb;" horiz-adv-x="352" 
d="M54 59l99 189l-27 185h73l38 -185l-110 -189h-73zM188 59l99 189l-27 185h73l38 -185l-110 -189h-73z" />
    <glyph glyph-name="onequarter" unicode="&#xbc;" horiz-adv-x="815" 
d="M637 0l23 120h-176l8 45l225 268h60l-52 -265h74l-10 -48h-73l-23 -120h-56zM705 361l-154 -193h119l37 191zM242 0l331 634h57l-332 -634h-56zM175 202l75 382l-93 -55l12 60l101 56h47l-86 -443h-56z" />
    <glyph glyph-name="onehalf" unicode="&#xbd;" horiz-adv-x="815" 
d="M175 202l75 382l-93 -55l12 60l101 56h47l-86 -443h-56zM219 0l331 634h57l-331 -634h-57zM471 0l9 50q29 20 63.5 48t81.5 71t77.5 89t30.5 81q0 24 -14 42t-46 18q-61 0 -76 -66h-61q6 45 40 78t101 33q59 0 86.5 -31t27.5 -76q0 -43 -31 -92.5t-76 -90t-77 -65
t-51 -36.5v-2h186l-10 -51h-261z" />
    <glyph glyph-name="threequarters" unicode="&#xbe;" horiz-adv-x="815" 
d="M671 0l23 120h-176l9 45l224 268h60l-51 -265h73l-10 -48h-73l-23 -120h-56zM739 361l-153 -193h118l37 191zM293 0l331 634h57l-331 -634h-57zM206 544h-61q6 42 39.5 71.5t93.5 29.5q58 0 87 -27.5t29 -70.5q0 -50 -24.5 -79t-58.5 -39q49 -22 49 -86
q0 -65 -37.5 -106.5t-112.5 -41.5q-54 0 -87 23t-33 63q0 3 0.5 8t0.5 7h62q0 -1 -0.5 -4.5t-0.5 -5.5q0 -18 15 -32t47 -14q88 0 88 99q0 39 -19 53t-61 14l9 46q105 0 105 90q0 24 -14 41t-47 17q-52 0 -69 -56z" />
    <glyph glyph-name="questiondown" unicode="&#xbf;" horiz-adv-x="407" 
d="M331 -50l-15 -75q-81 -22 -132 -22q-79 0 -125 37.5t-46 92.5q0 17 3.5 32.5t12 30.5t15 26t21 26t20.5 21.5t23 21.5t20 18l62 56q43 40 56.5 61t21.5 62l6 29h71l-8 -45q-10 -49 -25 -73t-64 -68l-70 -64q-2 -2 -11 -10t-12.5 -11.5t-12 -11.5t-12.5 -13t-11 -13
t-10.5 -14.5t-7.5 -14.5t-5.5 -16t-1.5 -16q0 -40 32 -59.5t73 -19.5q66 0 132 32zM278 455l19 99h99l-19 -99h-99z" />
    <glyph glyph-name="Agrave" unicode="&#xc0;" horiz-adv-x="556" 
d="M9 0l355 690h94l89 -690h-75l-26 212h-252l-106 -212h-79zM397 620l-171 -343h213l-40 343h-2zM378 773l-42 131h88l16 -131h-62z" />
    <glyph glyph-name="Aacute" unicode="&#xc1;" horiz-adv-x="556" 
d="M9 0l355 690h94l89 -690h-75l-26 212h-252l-106 -212h-79zM397 620l-171 -343h213l-40 343h-2zM387 773l69 131h88l-94 -131h-63z" />
    <glyph glyph-name="Acircumflex" unicode="&#xc2;" horiz-adv-x="556" 
d="M9 0l355 690h94l89 -690h-75l-26 212h-252l-106 -212h-79zM397 620l-171 -343h213l-40 343h-2zM291 773l113 131h74l63 -131h-61l-48 80l-80 -80h-61z" />
    <glyph glyph-name="Atilde" unicode="&#xc3;" horiz-adv-x="556" 
d="M9 0l355 690h94l89 -690h-75l-26 212h-252l-106 -212h-79zM397 620l-171 -343h213l-40 343h-2zM318 773h-42q0 1 2 9l3 12t4 13l5 15t6 15t8 14.5t10 12t11.5 10.5t13.5 6.5t16 2.5q21 0 58 -26.5t48 -26.5q25 0 31 48h42q-4 -25 -11.5 -47.5t-26.5 -43t-44 -20.5
q-21 0 -59 27t-45 27q-22 0 -30 -48z" />
    <glyph glyph-name="Adieresis" unicode="&#xc4;" horiz-adv-x="556" 
d="M9 0l355 690h94l89 -690h-75l-26 212h-252l-106 -212h-79zM397 620l-171 -343h213l-40 343h-2zM283 784l17 88h88l-17 -88h-88zM460 784l17 88h88l-17 -88h-88z" />
    <glyph glyph-name="Aring" unicode="&#xc5;" horiz-adv-x="556" 
d="M9 0l355 690h94l89 -690h-75l-26 212h-252l-106 -212h-79zM397 620l-171 -343h213l-40 343h-2zM422 757q-35 0 -60 25t-25 61q0 35 25 60t60 25t60 -25t25 -60q0 -36 -25 -61t-60 -25zM379 843q0 -18 12.5 -31t30.5 -13t30.5 13t12.5 31q0 17 -12.5 30t-30.5 13
t-30.5 -13t-12.5 -30z" />
    <glyph glyph-name="AE" unicode="&#xc6;" horiz-adv-x="796" 
d="M0 0l529 690h366l-12 -65h-266l-33 -261h241l-13 -65h-236l-29 -234h235l-13 -65h-304l37 299h-189l-222 -299h-91zM539 606l-178 -242h149l31 240z" />
    <glyph glyph-name="Ccedilla" unicode="&#xc7;" horiz-adv-x="537" 
d="M231 -93l37 89q-156 35 -156 251q0 81 18 158t55 145t102.5 109.5t151.5 41.5q90 0 139.5 -46.5t49.5 -111.5q0 -8 -2 -23.5t-2 -17.5h-89q4 20 4 34q0 41 -29.5 70.5t-85.5 29.5q-58 0 -103.5 -37.5t-71.5 -96.5t-39.5 -123t-13.5 -126q0 -199 154 -199q76 0 170 47
l-16 -78q-78 -34 -167 -34q-20 0 -30 1l-20 -48q43 0 63.5 -15t20.5 -51q0 -44 -33 -73.5t-84 -29.5q-31 0 -60 13l10 51q24 -24 53 -24q20 0 38.5 16t18.5 39q0 40 -58 40q-5 0 -13 -0.5t-12 -0.5z" />
    <glyph glyph-name="Egrave" unicode="&#xc8;" horiz-adv-x="463" 
d="M85 0l135 690h334l-13 -65h-258l-45 -232h245l-12 -65h-246l-51 -263h266l-12 -65h-343zM347 773l-42 131h88l16 -131h-62z" />
    <glyph glyph-name="Eacute" unicode="&#xc9;" horiz-adv-x="463" 
d="M85 0l135 690h334l-13 -65h-258l-45 -232h245l-12 -65h-246l-51 -263h266l-12 -65h-343zM351 773l69 131h88l-94 -131h-63z" />
    <glyph glyph-name="Ecircumflex" unicode="&#xca;" horiz-adv-x="463" 
d="M85 0l135 690h334l-13 -65h-258l-45 -232h245l-12 -65h-246l-51 -263h266l-12 -65h-343zM265 773l113 131h74l63 -131h-61l-48 80l-80 -80h-61z" />
    <glyph glyph-name="Edieresis" unicode="&#xcb;" horiz-adv-x="463" 
d="M85 0l135 690h334l-13 -65h-258l-45 -232h245l-12 -65h-246l-51 -263h266l-12 -65h-343zM267 784l17 88h88l-17 -88h-88zM444 784l17 88h88l-17 -88h-88z" />
    <glyph glyph-name="Igrave" unicode="&#xcc;" horiz-adv-x="259" 
d="M92 0l134 690h76l-134 -690h-76zM230 773l-42 131h88l16 -131h-62z" />
    <glyph glyph-name="Iacute" unicode="&#xcd;" horiz-adv-x="259" 
d="M92 0l134 690h76l-134 -690h-76zM239 773l69 131h88l-94 -131h-63z" />
    <glyph glyph-name="Icircumflex" unicode="&#xce;" horiz-adv-x="259" 
d="M92 0l134 690h76l-134 -690h-76zM138 773l113 131h74l63 -131h-61l-48 80l-80 -80h-61z" />
    <glyph glyph-name="Idieresis" unicode="&#xcf;" horiz-adv-x="259" 
d="M92 0l134 690h76l-134 -690h-76zM135 784l17 88h88l-17 -88h-88zM312 784l17 88h88l-17 -88h-88z" />
    <glyph glyph-name="Eth" unicode="&#xd0;" horiz-adv-x="574" 
d="M227 338l-53 -273h88q87 0 146 56t84.5 143t25.5 199q0 50 -13 83.5t-39 50t-55 22.5t-71 6h-57l-46 -238h148l-10 -49h-148zM85 0l66 338h-85l9 49h86l59 303h154q112 0 170 -54t58 -173q0 -100 -20.5 -182.5t-62 -146t-110.5 -99t-160 -35.5h-164z" />
    <glyph glyph-name="Ntilde" unicode="&#xd1;" horiz-adv-x="630" 
d="M85 0l135 690h97l169 -594h2l116 594h76l-135 -690h-97l-173 581h-2l-112 -581h-76zM360 773h-42q0 1 2 9l3 12t4 13l5 15t6 15t8 14.5t10 12t11.5 10.5t13.5 6.5t16 2.5q21 0 58 -26.5t48 -26.5q25 0 31 48h42q-4 -25 -11.5 -47.5t-26.5 -43t-44 -20.5q-21 0 -59 27
t-45 27q-22 0 -30 -48z" />
    <glyph glyph-name="Ograve" unicode="&#xd2;" horiz-adv-x="593" 
d="M306 -11q-109 0 -153 63t-44 172q0 65 10 129t34 127.5t59.5 112t91.5 78.5t125 30q191 0 191 -228q0 -83 -16.5 -163.5t-51.5 -154.5t-98.5 -120t-147.5 -46zM193 222q0 -27 5 -53t16.5 -53.5t37 -44.5t61.5 -17q54 0 96 34.5t65 83.5t38 110t19.5 105.5t4.5 78.5
q0 170 -123 170q-52 0 -93.5 -34t-64.5 -82.5t-37.5 -109t-19.5 -106.5t-5 -82zM377 773l-42 131h88l16 -131h-62z" />
    <glyph glyph-name="Oacute" unicode="&#xd3;" horiz-adv-x="593" 
d="M306 -11q-109 0 -153 63t-44 172q0 65 10 129t34 127.5t59.5 112t91.5 78.5t125 30q191 0 191 -228q0 -83 -16.5 -163.5t-51.5 -154.5t-98.5 -120t-147.5 -46zM193 222q0 -27 5 -53t16.5 -53.5t37 -44.5t61.5 -17q54 0 96 34.5t65 83.5t38 110t19.5 105.5t4.5 78.5
q0 170 -123 170q-52 0 -93.5 -34t-64.5 -82.5t-37.5 -109t-19.5 -106.5t-5 -82zM386 773l69 131h88l-94 -131h-63z" />
    <glyph glyph-name="Ocircumflex" unicode="&#xd4;" horiz-adv-x="593" 
d="M306 -11q-109 0 -153 63t-44 172q0 65 10 129t34 127.5t59.5 112t91.5 78.5t125 30q191 0 191 -228q0 -83 -16.5 -163.5t-51.5 -154.5t-98.5 -120t-147.5 -46zM193 222q0 -27 5 -53t16.5 -53.5t37 -44.5t61.5 -17q54 0 96 34.5t65 83.5t38 110t19.5 105.5t4.5 78.5
q0 170 -123 170q-52 0 -93.5 -34t-64.5 -82.5t-37.5 -109t-19.5 -106.5t-5 -82zM300 773l113 131h74l63 -131h-61l-48 80l-80 -80h-61z" />
    <glyph glyph-name="Otilde" unicode="&#xd5;" horiz-adv-x="593" 
d="M306 -11q-109 0 -153 63t-44 172q0 65 10 129t34 127.5t59.5 112t91.5 78.5t125 30q191 0 191 -228q0 -83 -16.5 -163.5t-51.5 -154.5t-98.5 -120t-147.5 -46zM193 222q0 -27 5 -53t16.5 -53.5t37 -44.5t61.5 -17q54 0 96 34.5t65 83.5t38 110t19.5 105.5t4.5 78.5
q0 170 -123 170q-52 0 -93.5 -34t-64.5 -82.5t-37.5 -109t-19.5 -106.5t-5 -82zM332 773h-42q0 1 2 9l3 12t4 13l5 15t6 15t8 14.5t10 12t11.5 10.5t13.5 6.5t16 2.5q21 0 58 -26.5t48 -26.5q25 0 31 48h42q-4 -25 -11.5 -47.5t-26.5 -43t-44 -20.5q-21 0 -59 27t-45 27
q-22 0 -30 -48z" />
    <glyph glyph-name="Odieresis" unicode="&#xd6;" horiz-adv-x="593" 
d="M306 -11q-109 0 -153 63t-44 172q0 65 10 129t34 127.5t59.5 112t91.5 78.5t125 30q191 0 191 -228q0 -83 -16.5 -163.5t-51.5 -154.5t-98.5 -120t-147.5 -46zM193 222q0 -27 5 -53t16.5 -53.5t37 -44.5t61.5 -17q54 0 96 34.5t65 83.5t38 110t19.5 105.5t4.5 78.5
q0 170 -123 170q-52 0 -93.5 -34t-64.5 -82.5t-37.5 -109t-19.5 -106.5t-5 -82zM287 784l17 88h88l-17 -88h-88zM464 784l17 88h88l-17 -88h-88z" />
    <glyph glyph-name="multiply" unicode="&#xd7;" horiz-adv-x="574" 
d="M99 0l-35 46l216 198l-138 177l52 55l150 -195l216 195l38 -46l-220 -193l144 -186l-50 -51l-154 196z" />
    <glyph glyph-name="Oslash" unicode="&#xd8;" horiz-adv-x="593" 
d="M96 -40l-39 25l76 101q-24 52 -24 138q0 65 10 129t34 127.5t59.5 112t91.5 78.5t125 30q86 0 134 -48l59 78l39 -25l-70 -92q29 -53 29 -141q0 -83 -16.5 -163.5t-51.5 -154.5t-98.5 -120t-147.5 -46q-98 0 -146 56zM197 170l314 415q-30 51 -98 51q-52 0 -93.5 -34
t-64.5 -82.5t-37.5 -109t-19.5 -106.5t-5 -82q0 -27 4 -52zM530 533l-316 -417q30 -62 99 -62q54 0 96 34.5t65 83.5t38 110t19.5 105.5t4.5 78.5q0 39 -6 67z" />
    <glyph glyph-name="Ugrave" unicode="&#xd9;" horiz-adv-x="593" 
d="M648 690l-87 -441q-7 -37 -13 -60.5t-16 -54t-21.5 -49t-30 -39t-42 -31.5t-56 -18.5t-72.5 -7.5q-84 0 -140 40.5t-56 117.5q0 34 12 96l87 447h76l-87 -448q-11 -62 -11 -84q0 -52 36 -78t87 -26q46 0 76.5 13.5t49 43.5t27.5 59t18 79l87 441h76zM387 773l-42 131h88
l16 -131h-62z" />
    <glyph glyph-name="Uacute" unicode="&#xda;" horiz-adv-x="593" 
d="M648 690l-87 -441q-7 -37 -13 -60.5t-16 -54t-21.5 -49t-30 -39t-42 -31.5t-56 -18.5t-72.5 -7.5q-84 0 -140 40.5t-56 117.5q0 34 12 96l87 447h76l-87 -448q-11 -62 -11 -84q0 -52 36 -78t87 -26q46 0 76.5 13.5t49 43.5t27.5 59t18 79l87 441h76zM391 773l69 131h88
l-94 -131h-63z" />
    <glyph glyph-name="Ucircumflex" unicode="&#xdb;" horiz-adv-x="593" 
d="M648 690l-87 -441q-7 -37 -13 -60.5t-16 -54t-21.5 -49t-30 -39t-42 -31.5t-56 -18.5t-72.5 -7.5q-84 0 -140 40.5t-56 117.5q0 34 12 96l87 447h76l-87 -448q-11 -62 -11 -84q0 -52 36 -78t87 -26q46 0 76.5 13.5t49 43.5t27.5 59t18 79l87 441h76zM290 773l113 131h74
l63 -131h-61l-48 80l-80 -80h-61z" />
    <glyph glyph-name="Udieresis" unicode="&#xdc;" horiz-adv-x="593" 
d="M648 690l-87 -441q-7 -37 -13 -60.5t-16 -54t-21.5 -49t-30 -39t-42 -31.5t-56 -18.5t-72.5 -7.5q-84 0 -140 40.5t-56 117.5q0 34 12 96l87 447h76l-87 -448q-11 -62 -11 -84q0 -52 36 -78t87 -26q46 0 76.5 13.5t49 43.5t27.5 59t18 79l87 441h76zM297 784l17 88h88
l-17 -88h-88zM474 784l17 88h88l-17 -88h-88z" />
    <glyph glyph-name="Yacute" unicode="&#xdd;" 
d="M211 0l62 318l-144 372h83l111 -293l228 293h89l-291 -372l-62 -318h-76zM349 773l69 131h88l-94 -131h-63z" />
    <glyph glyph-name="Thorn" unicode="&#xde;" horiz-adv-x="574" 
d="M82 0l134 690h76l-25 -131h130q47 0 79 -5t64 -20t48 -48.5t16 -85.5q0 -122 -62.5 -180t-186.5 -58h-165l-32 -162h-76zM254 494l-52 -267h140q33 0 57 2.5t49 12.5t40.5 27.5t25.5 48.5t10 75q0 65 -28.5 83t-110.5 18h-131z" />
    <glyph glyph-name="germandbls" unicode="&#xdf;" horiz-adv-x="519" 
d="M80 0l94 487q8 38 14.5 62t21.5 56t35 50.5t54.5 32t79.5 13.5q82 0 121.5 -41t39.5 -101q0 -77 -41.5 -125t-90.5 -57v-2q107 -26 107 -135q0 -46 -11.5 -88t-37 -80t-73 -60.5t-111.5 -22.5q-31 0 -77 11l11 59q36 -13 68 -13q78 0 115.5 55.5t37.5 127.5
q0 117 -125 117l10 53q71 0 105.5 42.5t34.5 111.5q0 35 -22.5 63t-69.5 28q-27 0 -48 -10t-33 -23t-21.5 -37.5t-13 -40.5t-9.5 -46l-94 -487h-71z" />
    <glyph glyph-name="agrave" unicode="&#xe0;" horiz-adv-x="481" 
d="M333 0l15 77l-2 2q-14 -26 -26 -42t-41 -32t-67 -16q-62 0 -95 45t-33 120q0 74 21.5 147.5t71 129.5t117.5 56q45 0 74 -25.5t42 -59.5h2l13 74h71l-92 -476h-71zM162 164q0 -118 75 -118q45 0 80 42.5t51.5 100t16.5 114.5t-23.5 92t-63.5 35q-36 0 -64.5 -31
t-43 -76.5t-21.5 -87t-7 -71.5zM301 559l-42 131h88l16 -131h-62z" />
    <glyph glyph-name="aacute" unicode="&#xe1;" horiz-adv-x="481" 
d="M333 0l15 77l-2 2q-14 -26 -26 -42t-41 -32t-67 -16q-62 0 -95 45t-33 120q0 74 21.5 147.5t71 129.5t117.5 56q45 0 74 -25.5t42 -59.5h2l13 74h71l-92 -476h-71zM162 164q0 -118 75 -118q45 0 80 42.5t51.5 100t16.5 114.5t-23.5 92t-63.5 35q-36 0 -64.5 -31
t-43 -76.5t-21.5 -87t-7 -71.5zM315 559l69 131h88l-94 -131h-63z" />
    <glyph glyph-name="acircumflex" unicode="&#xe2;" horiz-adv-x="481" 
d="M333 0l15 77l-2 2q-14 -26 -26 -42t-41 -32t-67 -16q-62 0 -95 45t-33 120q0 74 21.5 147.5t71 129.5t117.5 56q45 0 74 -25.5t42 -59.5h2l13 74h71l-92 -476h-71zM162 164q0 -118 75 -118q45 0 80 42.5t51.5 100t16.5 114.5t-23.5 92t-63.5 35q-36 0 -64.5 -31
t-43 -76.5t-21.5 -87t-7 -71.5zM214 559l113 131h74l63 -131h-61l-48 80l-80 -80h-61z" />
    <glyph glyph-name="atilde" unicode="&#xe3;" horiz-adv-x="481" 
d="M333 0l15 77l-2 2q-14 -26 -26 -42t-41 -32t-67 -16q-62 0 -95 45t-33 120q0 74 21.5 147.5t71 129.5t117.5 56q45 0 74 -25.5t42 -59.5h2l13 74h71l-92 -476h-71zM162 164q0 -118 75 -118q45 0 80 42.5t51.5 100t16.5 114.5t-23.5 92t-63.5 35q-36 0 -64.5 -31
t-43 -76.5t-21.5 -87t-7 -71.5zM251 559h-42q0 1 2 9l3 12t4 13l5 15t6 15t8 14.5t10 12t11.5 10.5t13.5 6.5t16 2.5q21 0 58 -26.5t48 -26.5q25 0 31 48h42q-4 -25 -11.5 -47.5t-26.5 -43t-44 -20.5q-21 0 -59 27t-45 27q-22 0 -30 -48z" />
    <glyph glyph-name="adieresis" unicode="&#xe4;" horiz-adv-x="481" 
d="M333 0l15 77l-2 2q-14 -26 -26 -42t-41 -32t-67 -16q-62 0 -95 45t-33 120q0 74 21.5 147.5t71 129.5t117.5 56q45 0 74 -25.5t42 -59.5h2l13 74h71l-92 -476h-71zM162 164q0 -118 75 -118q45 0 80 42.5t51.5 100t16.5 114.5t-23.5 92t-63.5 35q-36 0 -64.5 -31
t-43 -76.5t-21.5 -87t-7 -71.5zM211 570l17 88h88l-17 -88h-88zM388 570l17 88h88l-17 -88h-88z" />
    <glyph glyph-name="aring" unicode="&#xe5;" horiz-adv-x="481" 
d="M333 0l15 77l-2 2q-14 -26 -26 -42t-41 -32t-67 -16q-62 0 -95 45t-33 120q0 74 21.5 147.5t71 129.5t117.5 56q45 0 74 -25.5t42 -59.5h2l13 74h71l-92 -476h-71zM162 164q0 -118 75 -118q45 0 80 42.5t51.5 100t16.5 114.5t-23.5 92t-63.5 35q-36 0 -64.5 -31
t-43 -76.5t-21.5 -87t-7 -71.5zM355 543q-35 0 -60 25t-25 61q0 35 25 60t60 25t60 -25t25 -60q0 -36 -25 -61t-60 -25zM312 629q0 -18 12.5 -31t30.5 -13t30.5 13t12.5 31q0 17 -12.5 30t-30.5 13t-30.5 -13t-12.5 -30z" />
    <glyph glyph-name="ae" unicode="&#xe6;" horiz-adv-x="704" 
d="M328 0l16 77l-2 2q-11 -20 -19 -31.5t-24.5 -27.5t-39 -23.5t-52.5 -7.5q-62 0 -94.5 45t-32.5 120q0 54 13 110.5t37 107.5t66 83t93 32q46 0 74.5 -25t41.5 -60h2l14 74h62l-11 -53l2 -2q45 66 120 66q63 0 100 -37.5t37 -97.5q0 -47 -17 -100h-272q-7 -44 -7 -56
q0 -76 35 -113t110 -37q42 0 89 13l-11 -56q-58 -14 -102 -14q-48 0 -90 21t-61 62h-2l-13 -72h-62zM158 164q0 -118 74 -118q67 0 108 82.5t41 174.5q0 57 -23.5 92t-63.5 35q-37 0 -65 -31t-42.5 -77t-21.5 -87t-7 -71zM454 308h202q4 26 4 44q0 35 -19.5 56.5t-50.5 21.5
q-56 0 -86.5 -33t-49.5 -89z" />
    <glyph glyph-name="ccedilla" unicode="&#xe7;" horiz-adv-x="426" 
d="M176 -93l38 93q-125 35 -125 189q0 73 23.5 138.5t79.5 112.5t135 47q70 0 107 -34t37 -86q0 -19 -3 -36h-82q3 27 3 29q0 29 -18 49.5t-52 20.5q-66 0 -109 -63t-43 -158q0 -163 158 -163q35 0 77 10l-11 -54q-58 -13 -95 -13q-22 0 -43 3l-21 -50q43 0 63.5 -15
t20.5 -51q0 -44 -33 -73.5t-84 -29.5q-31 0 -60 13l10 51q24 -24 53 -24q20 0 38.5 16t18.5 39q0 40 -58 40q-5 0 -13 -0.5t-12 -0.5z" />
    <glyph glyph-name="egrave" unicode="&#xe8;" horiz-adv-x="444" 
d="M401 59l-11 -56q-58 -14 -102 -14q-198 0 -198 199q0 55 13 107t39.5 95.5t71 70t101.5 26.5q66 0 107 -38t41 -97q0 -34 -10 -71h-276q-9 -43 -9 -74q0 -82 38 -121.5t118 -39.5q36 0 77 13zM190 337h200q2 12 2 18q0 35 -22 55t-59 20q-83 0 -121 -93zM282 559l-42 131
h88l16 -131h-62z" />
    <glyph glyph-name="eacute" unicode="&#xe9;" horiz-adv-x="444" 
d="M401 59l-11 -56q-58 -14 -102 -14q-198 0 -198 199q0 55 13 107t39.5 95.5t71 70t101.5 26.5q66 0 107 -38t41 -97q0 -34 -10 -71h-276q-9 -43 -9 -74q0 -82 38 -121.5t118 -39.5q36 0 77 13zM190 337h200q2 12 2 18q0 35 -22 55t-59 20q-83 0 -121 -93zM296 559l69 131
h88l-94 -131h-63z" />
    <glyph glyph-name="ecircumflex" unicode="&#xea;" horiz-adv-x="444" 
d="M401 59l-11 -56q-58 -14 -102 -14q-198 0 -198 199q0 55 13 107t39.5 95.5t71 70t101.5 26.5q66 0 107 -38t41 -97q0 -34 -10 -71h-276q-9 -43 -9 -74q0 -82 38 -121.5t118 -39.5q36 0 77 13zM190 337h200q2 12 2 18q0 35 -22 55t-59 20q-83 0 -121 -93zM195 559l113 131
h74l63 -131h-61l-48 80l-80 -80h-61z" />
    <glyph glyph-name="edieresis" unicode="&#xeb;" horiz-adv-x="444" 
d="M401 59l-11 -56q-58 -14 -102 -14q-198 0 -198 199q0 55 13 107t39.5 95.5t71 70t101.5 26.5q66 0 107 -38t41 -97q0 -34 -10 -71h-276q-9 -43 -9 -74q0 -82 38 -121.5t118 -39.5q36 0 77 13zM190 337h200q2 12 2 18q0 35 -22 55t-59 20q-83 0 -121 -93zM192 570l17 88
h88l-17 -88h-88zM369 570l17 88h88l-17 -88h-88z" />
    <glyph glyph-name="igrave" unicode="&#xec;" horiz-adv-x="241" 
d="M85 0l93 476h71l-93 -476h-71zM181 559l-42 131h88l16 -131h-62z" />
    <glyph glyph-name="iacute" unicode="&#xed;" horiz-adv-x="241" 
d="M85 0l93 476h71l-93 -476h-71zM204 559l69 131h88l-94 -131h-63z" />
    <glyph glyph-name="icircumflex" unicode="&#xee;" horiz-adv-x="241" 
d="M85 0l93 476h71l-93 -476h-71zM103 559l113 131h74l63 -131h-61l-48 80l-80 -80h-61z" />
    <glyph glyph-name="idieresis" unicode="&#xef;" horiz-adv-x="241" 
d="M85 0l93 476h71l-93 -476h-71zM95 570l17 88h88l-17 -88h-88zM272 570l17 88h88l-17 -88h-88z" />
    <glyph glyph-name="eth" unicode="&#xf0;" 
d="M484 599l-63 -23q2 -2 12.5 -17t14 -20.5t13.5 -22t14.5 -28t11.5 -32t10.5 -40t6 -46t2.5 -55.5q0 -61 -13.5 -116t-41.5 -103.5t-78.5 -77.5t-116.5 -29q-75 0 -120 43.5t-45 131.5q0 45 7.5 88.5t26 86.5t46 75.5t70 52.5t95.5 20q51 0 82 -35l2 2q-22 56 -69 97
l-97 -36l-9 39l72 27q-44 32 -90 54h125q34 -25 37 -28l85 31zM169 172q0 -54 22.5 -90t72.5 -36q46 0 80 24.5t51.5 65t25 81t7.5 83.5q0 130 -101 130q-43 0 -75 -25t-49.5 -65t-25.5 -82.5t-8 -85.5z" />
    <glyph glyph-name="ntilde" unicode="&#xf1;" 
d="M80 0l92 476h71l-19 -95l2 -2q24 35 39.5 53t50 36.5t78.5 18.5q43 0 69.5 -30.5t26.5 -76.5q0 -19 -9 -73l-60 -307h-71l55 284q9 43 9 80q0 26 -15 41.5t-40 15.5q-35 0 -66.5 -25.5t-52.5 -66.5t-35.5 -82.5t-22.5 -84.5l-31 -162h-71zM260 559h-42q0 1 2 9l3 12t4 13
l5 15t6 15t8 14.5t10 12t11.5 10.5t13.5 6.5t16 2.5q21 0 58 -26.5t48 -26.5q25 0 31 48h42q-4 -25 -11.5 -47.5t-26.5 -43t-44 -20.5q-21 0 -59 27t-45 27q-22 0 -30 -48z" />
    <glyph glyph-name="ograve" unicode="&#xf2;" horiz-adv-x="481" 
d="M250 -11q-75 0 -119.5 43.5t-44.5 131.5q0 57 13 111t40 103.5t76.5 79t115.5 29.5q76 0 117.5 -44.5t41.5 -127.5q0 -61 -13 -116t-40 -103.5t-75.5 -77.5t-111.5 -29zM164 172q0 -53 22 -89.5t72 -36.5q44 0 75.5 24.5t48 65t23.5 81t7 83.5q0 130 -90 130
q-42 0 -74.5 -25t-49.5 -65t-25.5 -82.5t-8.5 -85.5zM301 559l-42 131h88l16 -131h-62z" />
    <glyph glyph-name="oacute" unicode="&#xf3;" horiz-adv-x="481" 
d="M250 -11q-75 0 -119.5 43.5t-44.5 131.5q0 57 13 111t40 103.5t76.5 79t115.5 29.5q76 0 117.5 -44.5t41.5 -127.5q0 -61 -13 -116t-40 -103.5t-75.5 -77.5t-111.5 -29zM164 172q0 -53 22 -89.5t72 -36.5q44 0 75.5 24.5t48 65t23.5 81t7 83.5q0 130 -90 130
q-42 0 -74.5 -25t-49.5 -65t-25.5 -82.5t-8.5 -85.5zM315 559l69 131h88l-94 -131h-63z" />
    <glyph glyph-name="ocircumflex" unicode="&#xf4;" horiz-adv-x="481" 
d="M250 -11q-75 0 -119.5 43.5t-44.5 131.5q0 57 13 111t40 103.5t76.5 79t115.5 29.5q76 0 117.5 -44.5t41.5 -127.5q0 -61 -13 -116t-40 -103.5t-75.5 -77.5t-111.5 -29zM164 172q0 -53 22 -89.5t72 -36.5q44 0 75.5 24.5t48 65t23.5 81t7 83.5q0 130 -90 130
q-42 0 -74.5 -25t-49.5 -65t-25.5 -82.5t-8.5 -85.5zM214 559l113 131h74l63 -131h-61l-48 80l-80 -80h-61z" />
    <glyph glyph-name="otilde" unicode="&#xf5;" horiz-adv-x="481" 
d="M250 -11q-75 0 -119.5 43.5t-44.5 131.5q0 57 13 111t40 103.5t76.5 79t115.5 29.5q76 0 117.5 -44.5t41.5 -127.5q0 -61 -13 -116t-40 -103.5t-75.5 -77.5t-111.5 -29zM164 172q0 -53 22 -89.5t72 -36.5q44 0 75.5 24.5t48 65t23.5 81t7 83.5q0 130 -90 130
q-42 0 -74.5 -25t-49.5 -65t-25.5 -82.5t-8.5 -85.5zM251 559h-42q0 1 2 9l3 12t4 13l5 15t6 15t8 14.5t10 12t11.5 10.5t13.5 6.5t16 2.5q21 0 58 -26.5t48 -26.5q25 0 31 48h42q-4 -25 -11.5 -47.5t-26.5 -43t-44 -20.5q-21 0 -59 27t-45 27q-22 0 -30 -48z" />
    <glyph glyph-name="odieresis" unicode="&#xf6;" horiz-adv-x="481" 
d="M250 -11q-75 0 -119.5 43.5t-44.5 131.5q0 57 13 111t40 103.5t76.5 79t115.5 29.5q76 0 117.5 -44.5t41.5 -127.5q0 -61 -13 -116t-40 -103.5t-75.5 -77.5t-111.5 -29zM164 172q0 -53 22 -89.5t72 -36.5q44 0 75.5 24.5t48 65t23.5 81t7 83.5q0 130 -90 130
q-42 0 -74.5 -25t-49.5 -65t-25.5 -82.5t-8.5 -85.5zM211 570l17 88h88l-17 -88h-88zM388 570l17 88h88l-17 -88h-88z" />
    <glyph glyph-name="divide" unicode="&#xf7;" horiz-adv-x="574" 
d="M234 0l17 91h91l-17 -91h-91zM98 213l12 61h461l-11 -61h-462zM307 379l18 91h91l-18 -91h-91z" />
    <glyph glyph-name="oslash" unicode="&#xf8;" horiz-adv-x="481" 
d="M406 360l-217 -283q24 -31 69 -31q44 0 75.5 24.5t48 65t23.5 81t7 83.5q0 37 -6 60zM170 116l218 284q-22 30 -66 30q-43 0 -75 -25t-49.5 -65t-26 -82.5t-8.5 -85.5q0 -31 7 -56zM90 -52l-32 22l60 78q-33 40 -33 116q0 45 7.5 88.5t26 86.5t46 75.5t70.5 52.5t96 20
q62 0 101 -30l52 68l32 -22l-58 -75q32 -43 32 -113q0 -61 -13 -116t-40 -103.5t-75.5 -77.5t-111.5 -29q-64 0 -105 31z" />
    <glyph glyph-name="ugrave" unicode="&#xf9;" 
d="M344 0l19 95l-2 2q-18 -27 -28.5 -40t-31.5 -32t-47 -27.5t-59 -8.5q-43 0 -69.5 30.5t-26.5 76.5q0 30 9 73l60 307h71l-56 -284q-8 -38 -8 -81q0 -25 15.5 -40.5t39.5 -15.5q46 0 85 45.5t59 100t32 113.5l33 162h71l-95 -476h-71zM310 559l-42 131h88l16 -131h-62z
" />
    <glyph glyph-name="uacute" unicode="&#xfa;" 
d="M344 0l19 95l-2 2q-18 -27 -28.5 -40t-31.5 -32t-47 -27.5t-59 -8.5q-43 0 -69.5 30.5t-26.5 76.5q0 30 9 73l60 307h71l-56 -284q-8 -38 -8 -81q0 -25 15.5 -40.5t39.5 -15.5q46 0 85 45.5t59 100t32 113.5l33 162h71l-95 -476h-71zM314 559l69 131h88l-94 -131h-63z
" />
    <glyph glyph-name="ucircumflex" unicode="&#xfb;" 
d="M344 0l19 95l-2 2q-18 -27 -28.5 -40t-31.5 -32t-47 -27.5t-59 -8.5q-43 0 -69.5 30.5t-26.5 76.5q0 30 9 73l60 307h71l-56 -284q-8 -38 -8 -81q0 -25 15.5 -40.5t39.5 -15.5q46 0 85 45.5t59 100t32 113.5l33 162h71l-95 -476h-71zM223 559l113 131h74l63 -131h-61
l-48 80l-80 -80h-61z" />
    <glyph glyph-name="udieresis" unicode="&#xfc;" 
d="M344 0l19 95l-2 2q-18 -27 -28.5 -40t-31.5 -32t-47 -27.5t-59 -8.5q-43 0 -69.5 30.5t-26.5 76.5q0 30 9 73l60 307h71l-56 -284q-8 -38 -8 -81q0 -25 15.5 -40.5t39.5 -15.5q46 0 85 45.5t59 100t32 113.5l33 162h71l-95 -476h-71zM220 570l17 88h88l-17 -88h-88z
M397 570l17 88h88l-17 -88h-88z" />
    <glyph glyph-name="yacute" unicode="&#xfd;" horiz-adv-x="426" 
d="M79 -196l105 196l-86 476h73l68 -381h2l200 381h72l-361 -672h-73zM287 559l69 131h88l-94 -131h-63z" />
    <glyph glyph-name="thorn" unicode="&#xfe;" horiz-adv-x="463" 
d="M25 -214l176 904h71l-58 -291l2 -2q11 20 19 31.5t24 27t39 23.5t53 8q63 0 95.5 -45t32.5 -120q0 -54 -13 -110.5t-37.5 -107.5t-66 -83t-93.5 -32q-46 0 -74.5 25t-41.5 60h-2l-55 -288h-71zM178 173q0 -57 23.5 -92t62.5 -35q37 0 65.5 31t43 77t21.5 87t7 71
q0 118 -75 118q-67 0 -107.5 -82.5t-40.5 -174.5z" />
    <glyph glyph-name="ydieresis" unicode="&#xff;" horiz-adv-x="426" 
d="M79 -196l105 196l-86 476h73l68 -381h2l200 381h72l-361 -672h-73zM183 570l17 88h88l-17 -88h-88zM360 570l17 88h88l-17 -88h-88z" />
    <glyph glyph-name="dotlessi" unicode="&#x131;" horiz-adv-x="241" 
d="M85 0l93 476h71l-93 -476h-71z" />
    <glyph glyph-name="Lslash" unicode="&#x141;" horiz-adv-x="407" 
d="M87 0l55 286l-101 -74l12 58l100 74l68 346h76l-54 -278l131 98l-11 -59l-132 -98l-56 -288h248l-13 -65h-323z" />
    <glyph glyph-name="lslash" unicode="&#x142;" horiz-adv-x="241" 
d="M85 0l63 324l-99 -74l10 55l100 74l60 311h71l-49 -249l100 74l-10 -55l-100 -74l-75 -386h-71z" />
    <glyph glyph-name="OE" unicode="&#x152;" horiz-adv-x="870" 
d="M484 0l18 93l-2 2q-64 -106 -192 -106q-110 0 -154 63t-44 172q0 65 10 129t34 127.5t59.5 112t91.5 78.5t125 30q120 0 168 -108h2l18 97h350l-13 -65h-273l-45 -232h261l-13 -65h-261l-51 -263h282l-13 -65h-358zM194 222q0 -27 5 -53t16.5 -53.5t37 -44.5t61.5 -17
q60 0 107 34.5t72.5 83.5t42 110t21.5 105.5t5 78.5q0 170 -148 170q-52 0 -93.5 -34t-64.5 -82.5t-37.5 -109t-19.5 -106.5t-5 -82z" />
    <glyph glyph-name="oe" unicode="&#x153;" horiz-adv-x="759" 
d="M717 59l-11 -56q-60 -14 -102 -14q-58 0 -108 25t-68 76q-61 -101 -174 -101q-75 0 -120 43.5t-45 131.5q0 45 7.5 88.5t26 86.5t46 75.5t70 52.5t95.5 20q88 0 138 -81q68 81 170 81q60 0 98.5 -38t38.5 -97q0 -52 -14 -100h-275q-7 -33 -7 -56q0 -76 35 -113t110 -37
q42 0 89 13zM167 172q0 -54 22.5 -90t72.5 -36q44 0 75.5 24.5t48 65t23.5 81t7 83.5q0 130 -91 130q-43 0 -75 -25t-49.5 -65t-25.5 -82.5t-8 -85.5zM500 308h203q5 23 5 44q0 35 -19 56.5t-51 21.5q-58 0 -92 -34.5t-46 -87.5z" />
    <glyph glyph-name="Scaron" unicode="&#x160;" horiz-adv-x="481" 
d="M538 682l-15 -80q-77 34 -149 34q-68 0 -110.5 -30.5t-42.5 -83.5q0 -35 27.5 -63t66.5 -50.5t77.5 -47t66 -63.5t27.5 -90q0 -101 -73.5 -160t-206.5 -59q-72 0 -156 22l15 80q90 -37 160 -37q74 0 127.5 36t53.5 99q0 36 -27.5 67t-66 55t-77.5 49.5t-66.5 62
t-27.5 81.5q0 87 66.5 142t186.5 55q73 0 144 -19zM330 773l-63 131h61l48 -79l80 79h61l-113 -131h-74z" />
    <glyph glyph-name="scaron" unicode="&#x161;" horiz-adv-x="370" 
d="M405 465l-13 -61q-62 26 -113 26q-41 0 -70 -18t-29 -51q0 -21 20 -39.5t48 -33t56 -31.5t48 -44.5t20 -62.5q0 -82 -59 -121.5t-144 -39.5q-58 0 -130 18l13 66q57 -27 120 -27q52 0 89.5 20.5t37.5 64.5q0 28 -30 51.5t-66 40t-66 49t-30 74.5q0 72 52.5 106.5
t122.5 34.5q61 0 123 -22zM244 559l-63 131h61l48 -79l80 79h61l-113 -131h-74z" />
    <glyph glyph-name="Ydieresis" unicode="&#x178;" 
d="M211 0l62 318l-144 372h83l111 -293l228 293h89l-291 -372l-62 -318h-76zM245 784l17 88h88l-17 -88h-88zM422 784l17 88h88l-17 -88h-88z" />
    <glyph glyph-name="Zcaron" unicode="&#x17d;" horiz-adv-x="481" 
d="M24 0l12 65l440 560h-314l13 65h401l-12 -65l-440 -560h345l-13 -65h-432zM330 773l-63 131h61l48 -79l80 79h61l-113 -131h-74z" />
    <glyph glyph-name="zcaron" unicode="&#x17e;" horiz-adv-x="407" 
d="M31 0l11 56l319 364h-231l11 56h314l-11 -56l-317 -364h256l-11 -56h-341zM268 559l-63 131h61l48 -79l80 79h61l-113 -131h-74z" />
    <glyph glyph-name="florin" unicode="&#x192;" horiz-adv-x="315" 
d="M31 0l156 422h-81l20 54h81l11 30q15 43 30 71t39.5 56.5t61.5 42.5t87 14q36 0 82 -12l-20 -55q-40 10 -61 10q-29 0 -51 -7.5t-34.5 -15.5t-25 -29t-17 -32.5t-15.5 -41.5l-11 -31h127l-20 -54h-127l-155 -422h-77z" />
    <glyph glyph-name="circumflex" unicode="&#x2c6;" horiz-adv-x="290" 
d="M118 559l113 131h74l63 -131h-61l-48 80l-80 -80h-61z" />
    <glyph glyph-name="caron" unicode="&#x2c7;" horiz-adv-x="290" 
d="M204 559l-63 131h61l48 -79l80 79h61l-113 -131h-74z" />
    <glyph glyph-name="uni02C9" unicode="&#x2c9;" horiz-adv-x="290" 
d="M116 559l11 60h253l-12 -60h-252z" />
    <glyph glyph-name="breve" unicode="&#x2d8;" horiz-adv-x="290" 
d="M320 690h45q-5 -18 -13.5 -36.5t-25.5 -42t-45.5 -38t-64.5 -14.5q-49 0 -75.5 29.5t-26.5 69.5q0 17 3 32h45q0 -71 65 -71q68 0 93 71z" />
    <glyph glyph-name="dotaccent" unicode="&#x2d9;" horiz-adv-x="290" 
d="M182 570l17 88h88l-17 -88h-88z" />
    <glyph glyph-name="ring" unicode="&#x2da;" horiz-adv-x="290" 
d="M259 543q-35 0 -60 25t-25 61q0 35 25 60t60 25t60 -25t25 -60q0 -36 -25 -61t-60 -25zM216 629q0 -18 12.5 -31t30.5 -13t30.5 13t12.5 31q0 17 -12.5 30t-30.5 13t-30.5 -13t-12.5 -30z" />
    <glyph glyph-name="ogonek" unicode="&#x2db;" horiz-adv-x="290" 
d="M261 -163l-9 -49q-38 -8 -60 -8q-32 0 -58 15.5t-26 53.5q0 75 114 160h44q-97 -84 -97 -142q0 -21 12 -33t30 -12q33 0 50 15z" />
    <glyph glyph-name="tilde" unicode="&#x2dc;" horiz-adv-x="290" 
d="M155 559h-42q0 1 2 9l3 12t4 13l5 15t6 15t8 14.5t10 12t11.5 10.5t13.5 6.5t16 2.5q21 0 58 -26.5t48 -26.5q25 0 31 48h42q-4 -25 -11.5 -47.5t-26.5 -43t-44 -20.5q-21 0 -59 27t-45 27q-22 0 -30 -48z" />
    <glyph glyph-name="hungarumlaut" unicode="&#x2dd;" horiz-adv-x="290" 
d="M129 559l68 131h88l-94 -131h-62zM257 559l69 131h88l-95 -131h-62z" />
    <glyph glyph-name="uni03A9" unicode="&#x3a9;" horiz-adv-x="647" 
d="M189 56l1 3q-44 47 -64.5 119.5t-2.5 161.5q25 132 118.5 217t209.5 85q117 0 173 -88t32 -210q-17 -91 -67.5 -166t-110.5 -119l-1 -3h136l-11 -56h-216l8 42q64 37 117.5 112.5t73.5 176.5q9 62 1 118.5t-47 95.5t-100 39q-90 0 -159 -73t-90 -182q-19 -96 5.5 -174
t73.5 -113l-9 -42h-216l11 56h134z" />
    <glyph glyph-name="uni03BC" unicode="&#x3bc;" horiz-adv-x="519" 
d="M41 -214l134 690h71l-49 -252q-12 -60 -12 -88q0 -32 19 -56.5t59 -24.5q22 0 41.5 9.5t33 22.5t26 35t20 39t15 44t10.5 40.5t7.5 37.5t4.5 26l32 167h71l-65 -333q-10 -54 -10 -62q0 -42 34 -42q1 0 5 0.5t6 0.5l-9 -47q-16 -4 -25 -4q-72 0 -72 77q0 9 2 19l-2 2
q-14 -25 -26.5 -42t-44 -36.5t-69.5 -19.5q-57 0 -89 41l-47 -244h-71z" />
    <glyph glyph-name="pi" unicode="&#x3c0;" horiz-adv-x="513" 
d="M570 412h-72l-55 -279q-17 -92 -12 -133h-67q-10 29 10 127l55 285h-162q-23 -97 -67 -224.5t-79 -187.5h-67q38 70 80.5 192.5t64.5 219.5q-68 0 -102 -12l-2 46q43 24 134 24h359z" />
    <glyph glyph-name="uni2010" unicode="&#x2010;" horiz-adv-x="407" 
d="M93 213l14 70h304l-13 -70h-305z" />
    <glyph glyph-name="endash" unicode="&#x2013;" 
d="M93 213l14 70h398l-14 -70h-398z" />
    <glyph glyph-name="emdash" unicode="&#x2014;" horiz-adv-x="685" 
d="M93 213l14 70h582l-14 -70h-582z" />
    <glyph glyph-name="quoteleft" unicode="&#x2018;" horiz-adv-x="204" 
d="M141 476l75 214h68l-52 -214h-91z" />
    <glyph glyph-name="quoteright" unicode="&#x2019;" horiz-adv-x="204" 
d="M146 476l52 214h91l-75 -214h-68z" />
    <glyph glyph-name="quotesinglbase" unicode="&#x201a;" horiz-adv-x="204" 
d="M30 -115l52 214h91l-75 -214h-68z" />
    <glyph glyph-name="quotedblleft" unicode="&#x201c;" horiz-adv-x="352" 
d="M141 476l75 214h68l-52 -214h-91zM289 476l75 214h68l-52 -214h-91z" />
    <glyph glyph-name="quotedblright" unicode="&#x201d;" horiz-adv-x="352" 
d="M146 476l52 214h91l-75 -214h-68zM294 476l52 214h91l-75 -214h-68z" />
    <glyph glyph-name="quotedblbase" unicode="&#x201e;" horiz-adv-x="352" 
d="M32 -115l52 214h91l-75 -214h-68zM180 -115l52 214h91l-75 -214h-68z" />
    <glyph glyph-name="dagger" unicode="&#x2020;" 
d="M213 0l74 380h-174l12 64h175l48 246h76l-49 -246h173l-12 -64h-173l-74 -380h-76z" />
    <glyph glyph-name="daggerdbl" unicode="&#x2021;" horiz-adv-x="519" 
d="M224 0l61 318h-174l12 64h175l12 65h-174l12 64h175l35 179h76l-35 -179h172l-12 -64h-173l-12 -65h172l-12 -64h-173l-61 -318h-76z" />
    <glyph glyph-name="bullet" unicode="&#x2022;" 
d="M319 164q-74 0 -127.5 53t-53.5 128q0 74 53 127.5t128 53.5t128 -53.5t53 -127.5q0 -75 -53.5 -128t-127.5 -53z" />
    <glyph glyph-name="ellipsis" unicode="&#x2026;" horiz-adv-x="685" 
d="M57 0l18 91h91l-18 -91h-91zM297 0l18 91h91l-18 -91h-91zM537 0l18 91h91l-18 -91h-91z" />
    <glyph glyph-name="perthousand" unicode="&#x2030;" horiz-adv-x="1167" 
d="M221 197q-120 0 -120 144q0 50 10 100t30.5 97.5t60 77t91.5 29.5q62 0 91 -38.5t29 -102.5q0 -48 -10 -97.5t-30.5 -98.5t-60 -80t-91.5 -31zM159 346q0 -43 16.5 -72.5t53.5 -29.5q34 0 60 28.5t39.5 71t20 82.5t6.5 73q0 46 -13.5 72.5t-51.5 26.5q-34 0 -60.5 -26
t-41 -66.5t-22 -81.5t-7.5 -78zM646 -11q-121 0 -121 143q0 51 10 101t30.5 97.5t60 77t92.5 29.5q62 0 90.5 -38.5t28.5 -103.5q0 -48 -10 -97.5t-30.5 -98t-59.5 -79.5t-91 -31zM583 138q0 -102 70 -102q34 0 60 28.5t39.5 71t20 82.5t6.5 72q0 46 -13 73t-51 27
q-34 0 -61 -26.5t-41.5 -66.5t-22 -81.5t-7.5 -77.5zM999 -11q-121 0 -121 143q0 51 10 101t30.5 97.5t60 77t92.5 29.5q62 0 90.5 -38.5t28.5 -103.5q0 -48 -10 -97.5t-30.5 -98t-59.5 -79.5t-91 -31zM936 138q0 -102 70 -102q34 0 60 28.5t39.5 71t20 82.5t6.5 72
q0 46 -13 73t-51 27q-34 0 -61 -26.5t-41.5 -66.5t-22 -81.5t-7.5 -77.5zM276 0l331 634h57l-331 -634h-57z" />
    <glyph glyph-name="guilsinglleft" unicode="&#x2039;" horiz-adv-x="222" 
d="M117 59l-37 185l110 189h73l-99 -189l26 -185h-73z" />
    <glyph glyph-name="guilsinglright" unicode="&#x203a;" horiz-adv-x="222" 
d="M56 59l99 189l-27 185h73l38 -185l-110 -189h-73z" />
    <glyph glyph-name="fraction" unicode="&#x2044;" horiz-adv-x="204" 
d="M-36 0l332 634h57l-332 -634h-57z" />
    <glyph glyph-name="Euro" unicode="&#x20ac;" horiz-adv-x="537" 
d="M406 298l-19 -52h-158v-20q0 -85 28.5 -131.5t101.5 -46.5q63 0 147 44l-15 -72q-70 -31 -147 -31q-96 0 -145 58.5t-49 168.5q0 20 1 30h-82l19 52h66q6 44 11 67h-78l19 52h71q72 249 268 249q73 0 118 -40t45 -104q0 -27 -4 -44h-79q3 26 3 40q0 43 -25.5 66t-72.5 23
q-46 0 -84 -32.5t-58 -72.5t-32 -85h194l-19 -52h-187q-8 -36 -11 -67h173z" />
    <glyph glyph-name="afii61289" unicode="&#x2113;" horiz-adv-x="437" 
d="M410 135l27 -28q-83 -114 -191 -114q-72 0 -99.5 47t-16.5 120q0 2 1 6t1 6l-60 -42l-13 40q54 38 84 62l48 248q22 113 72.5 165t108.5 52q55 0 75.5 -41.5t7.5 -105.5q-29 -151 -250 -332l-5 -30q-13 -71 8 -105.5t63 -34.5q73 0 139 87zM257 484l-38 -198
q168 152 189 263q18 96 -45 96q-30 0 -60 -38.5t-46 -122.5z" />
    <glyph glyph-name="trademark" unicode="&#x2122;" horiz-adv-x="611" 
d="M206 400v248h-73v42h189v-42h-73v-248h-43zM356 400v290h79l49 -228h2l48 228h80v-290h-43v262h-2l-58 -262h-53l-57 262h-2v-262h-43z" />
    <glyph glyph-name="Omega" unicode="&#x2126;" horiz-adv-x="647" 
d="M189 56l1 3q-44 47 -64.5 119.5t-2.5 161.5q25 132 118.5 217t209.5 85q117 0 173 -88t32 -210q-17 -91 -67.5 -166t-110.5 -119l-1 -3h136l-11 -56h-216l8 42q64 37 117.5 112.5t73.5 176.5q9 62 1 118.5t-47 95.5t-100 39q-90 0 -159 -73t-90 -182q-19 -96 5.5 -174
t73.5 -113l-9 -42h-216l11 56h134z" />
    <glyph glyph-name="estimated" unicode="&#x212e;" horiz-adv-x="916" 
d="M885 308h-590q-5 0 -5 -4v-179q0 -10 8 -20q94 -97 223 -97q69 0 130 29t105 80h52q-50 -59 -126 -93t-162 -34q-151 0 -257.5 95.5t-106.5 231.5t106.5 232t257.5 96t258 -96t107 -232v-9zM751 331v180q0 12 -9 21q-95 93 -221 93q-128 0 -222 -96q-9 -9 -9 -22v-176
q0 -6 5 -6h452q4 0 4 6z" />
    <glyph glyph-name="partialdiff" unicode="&#x2202;" horiz-adv-x="492" 
d="M210 609l-13 50q72 50 159 50q95 0 144.5 -88.5t17.5 -253.5q-33 -166 -114.5 -270t-193.5 -104q-83 0 -115.5 62t-16.5 147q20 102 88.5 166.5t147.5 64.5q55 0 88 -28.5t43 -57.5h1q5 16 9 39q23 117 -11.5 191.5t-105.5 74.5q-66 0 -128 -43zM227 50h1q61 0 115 67
t82 162q-5 36 -34.5 67t-76.5 31q-55 0 -105 -51.5t-64 -123.5q-13 -67 9.5 -109.5t72.5 -42.5z" />
    <glyph glyph-name="Delta" unicode="&#x2206;" horiz-adv-x="582" 
d="M28 0l9 46l343 603h79l105 -602l-10 -47h-526zM108 56h384l-63 345q-3 23 -14 85t-13 83h-3q-9 -20 -42.5 -79.5t-41.5 -74.5z" />
    <glyph glyph-name="product" unicode="&#x220f;" horiz-adv-x="751" 
d="M728 570h-98v-657h-67v657h-251v-657h-67v657h-99v62h582v-62z" />
    <glyph glyph-name="summation" unicode="&#x2211;" horiz-adv-x="620" 
d="M601 -87h-457v45l241 313l-231 313v48h432v-59h-338v-3l215 -289l-232 -301v-3h370v-64z" />
    <glyph glyph-name="minus" unicode="&#x2212;" horiz-adv-x="574" 
d="M98 213l12 61h461l-11 -61h-462z" />
    <glyph glyph-name="uni2215" unicode="&#x2215;" horiz-adv-x="204" 
d="M-36 0l332 634h57l-332 -634h-57z" />
    <glyph glyph-name="uni2219" unicode="&#x2219;" horiz-adv-x="204" 
d="M105 268l19 98h98l-19 -98h-98z" />
    <glyph glyph-name="radical" unicode="&#x221a;" horiz-adv-x="638" 
d="M640 751l-199 -886h-60l-144 419l-67 -25l-14 42l123 48l115 -336q2 -11 8 -34t8 -32h1q3 24 12 66l167 738h50z" />
    <glyph glyph-name="infinity" unicode="&#x221e;" horiz-adv-x="777" 
d="M732 263v-1q0 -64 -40.5 -104t-96.5 -40q-41 0 -78.5 25.5t-87.5 82.5q-29 -34 -49.5 -54t-53.5 -37t-67 -17q-55 0 -95 41t-40 100q0 62 40 102.5t101 40.5q46 0 85.5 -28.5t81.5 -79.5q56 62 83 80q41 28 86 28q59 -1 95 -39.5t36 -99.5zM265 161h1q10 0 21 3t19.5 6
t19 11t17 12.5t17.5 15.5l15.5 15.5t16 17t13.5 15.5q-23 28 -32 38.5t-30 30t-41 27t-43 7.5q-41 0 -65.5 -30t-24.5 -72q1 -41 27.5 -69t68.5 -28zM596 360h-1q-17 0 -33.5 -6.5t-33 -19.5t-27 -23t-26.5 -27.5t-20 -22.5q51 -56 80 -78t63 -22q40 0 64.5 30t24.5 68
q0 46 -25.5 73.5t-65.5 27.5z" />
    <glyph glyph-name="integral" unicode="&#x222b;" horiz-adv-x="448" 
d="M433 760l-11 -48q-16 10 -33 10q-29 0 -46 -22q-30 -35 -30 -161q0 -70 6 -225t6 -230q0 -124 -39 -183q-28 -47 -89 -47q-34 0 -59 15l12 50q19 -11 40 -11q27 0 42 21q31 40 31 155q0 75 -6 232.5t-6 228.5q0 143 48 192q32 35 85 35q29 0 49 -12z" />
    <glyph glyph-name="approxequal" unicode="&#x2248;" horiz-adv-x="582" 
d="M513 390l28 -25q-46 -86 -116 -86q-18 0 -35.5 5.5t-30 11.5t-40.5 21q-54 31 -84 31q-28 0 -48 -17t-41 -50l-29 24q45 86 124 86q15 0 31.5 -4.5t25 -8.5t25 -13t19.5 -11q4 -2 17 -9.5t18 -9.5t14.5 -6t18 -5.5t17.5 -1.5q27 0 46.5 16.5t39.5 51.5zM513 236l28 -25
q-45 -85 -116 -85q-18 0 -35.5 5.5t-30 11.5t-40.5 21q-54 31 -84 31q-28 0 -48.5 -18t-40.5 -50l-29 24q44 86 124 86q15 0 32 -4.5t24.5 -8t25.5 -13.5t19 -10q2 -1 12 -7t12.5 -7t10.5 -5.5t12.5 -5.5t11.5 -3.5t13 -3t13 -0.5q27 0 46 16t40 51z" />
    <glyph glyph-name="notequal" unicode="&#x2260;" horiz-adv-x="598" 
d="M451 455l-40 -88h141v-44h-159l-60 -132h219v-44h-237l-49 -106l-35 16l42 90h-135v44h153l60 132h-213v44h231l47 104z" />
    <glyph glyph-name="lessequal" unicode="&#x2264;" horiz-adv-x="612" 
d="M563 87l-407 204v46l407 203v-53l-359 -171v-2l359 -174v-53zM566 5h-415v45h415v-45z" />
    <glyph glyph-name="greaterequal" unicode="&#x2265;" horiz-adv-x="611" 
d="M157 540l407 -203v-46l-407 -204v53l359 173v2l-359 172v53zM565 5h-413v45h413v-45z" />
    <glyph glyph-name="lozenge" unicode="&#x25ca;" horiz-adv-x="640" 
d="M591 316l-182 -357h-55l-179 357l181 357h56zM529 314l-128 253q-12 25 -17 48h-3q-7 -27 -17 -48l-127 -250l129 -255q12 -32 15 -46h4q9 31 16 45z" />
    <glyph glyph-name="fi" unicode="&#xfb01;" horiz-adv-x="537" 
d="M107 0l81 420h-79l11 56h79l9 48q17 89 58 133t136 44q42 0 77 -9l-11 -60q-43 12 -75 12q-31 0 -52 -9.5t-33 -29t-17.5 -36t-10.5 -42.5l-10 -51h135l-11 -56h-135l-81 -420h-71zM381 0l93 476h71l-93 -476h-71zM488 600l18 90h90l-18 -90h-90z" />
    <glyph glyph-name="fl" unicode="&#xfb02;" horiz-adv-x="537" 
d="M107 0l81 420h-79l11 56h79l9 48q17 89 58 133t136 44q42 0 77 -9l-11 -60q-43 12 -75 12q-31 0 -52 -9.5t-33 -29t-17.5 -36t-10.5 -42.5l-10 -51h135l-11 -56h-135l-81 -420h-71zM381 0l134 690h71l-134 -690h-71z" />
    <glyph glyph-name="one.superior" horiz-adv-x="352" 
d="M210 202l74 382l-92 -55l11 60l101 56h48l-87 -443h-55z" />
    <glyph glyph-name="two.superior" horiz-adv-x="352" 
d="M81 202l9 49q29 20 63.5 48t81.5 71t77.5 89t30.5 81q0 24 -14 42t-46 18q-60 0 -76 -65h-61q6 45 39.5 77.5t101.5 32.5q58 0 86 -30.5t28 -75.5q0 -43 -31 -92.5t-76 -90t-77 -65t-51 -36.5v-2h186l-10 -51h-261z" />
    <glyph glyph-name="three.superior" horiz-adv-x="352" 
d="M206 544h-61q6 42 39.5 71.5t93.5 29.5q59 0 88 -27t29 -71q0 -50 -25 -79t-59 -39q50 -22 50 -86q0 -65 -38 -106.5t-113 -41.5q-54 0 -87 23t-33 63q0 3 0.5 8t0.5 7h62q0 -1 -0.5 -4.5t-0.5 -5.5q0 -18 15 -32t47 -14q89 0 89 99q0 39 -19 53t-62 14l9 46
q106 0 106 90q0 24 -14.5 41t-47.5 17q-52 0 -69 -56z" />
    <glyph glyph-name="a.superior" horiz-adv-x="278" 
d="M246 289l9 42l-2 2q-27 -49 -74 -49q-34 0 -52 24t-18 68q0 38 10.5 77t38 72t66.5 33q46 0 64 -48h2l7 42h38l-51 -263h-38zM151 380q0 -63 42 -63q35 0 58 44.5t23 95.5q0 27 -13 47.5t-34 20.5q-20 0 -36 -17t-24 -41.5t-12 -47t-4 -39.5z" />
    <glyph glyph-name="o.superior" horiz-adv-x="278" 
d="M199 284q-42 0 -65.5 25t-23.5 72q0 32 7 61.5t22.5 56.5t43 43t64.5 16q40 0 62.5 -25.5t22.5 -69.5q0 -72 -32.5 -125.5t-100.5 -53.5zM152 384q0 -67 53 -67q46 0 65.5 42t19.5 96q0 70 -49 70q-46 0 -67.5 -43.5t-21.5 -97.5z" />
    </font>
</defs>
</svg>
